<svg width="32" height="54" viewBox="0 0 32 54" fill="none" xmlns="http://www.w3.org/2000/svg">
<path d="M8.73333 1.60001C6.46667 2.00001 5.4 2.80001 5.8 3.86668C6.2 4.80001 5.13333 7.86668 3.53333 10.5333C0.2 16.2667 -0.0666666 24.1333 2.86667 32.6667C3.93333 35.7333 4.46667 39.2 4.06667 40.2667C3.4 41.8667 3.93333 42.1333 5.93333 41.4667C7.93333 40.8 9 41.3333 9.53333 42.9333C10.2 44.6667 9.13333 46.5333 5.8 49.6C0.6 54.4 1.8 55.2 9 51.6C12.8667 49.6 14.4667 49.4667 18.3333 50.8C26.6 53.6 31.6667 54.2667 31.6667 52.8C31.6667 52 30.6 51.3333 29.2667 51.3333C27.9333 51.3333 25.4 49.8667 23.6667 48C20.4667 44.6667 20.4667 44.5333 22.7333 40.9333C32.2 26.5333 32.7333 13.7333 24.2 5.33334C19.5333 0.666676 17.8 0.266676 8.73333 1.60001ZM20.8667 12.1333C22.4667 14.1333 23.6667 17.6 23.6667 19.8667C23.6667 24.1333 18.3333 35.6 15.9333 36.4C13.6667 37.0667 12.8667 32.4 15 30C17.4 27.3333 17.6667 21.6 15.4 22.2667C14.4667 22.6667 13.2667 24.9333 12.6 27.4667L11.4 32L9.53333 28.6667C5.4 21.2 9.26667 8.66668 15.6667 8.66668C17 8.66668 19.4 10.2667 20.8667 12.1333Z" fill="currentColor"/>
</svg>
