<svg width="39" height="45" viewBox="0 0 39 45" fill="none" xmlns="http://www.w3.org/2000/svg">
<path d="M2.00002 3.19999C-1.73332 10.2667 2.40002 20.9333 10.6667 25.8667C14.8 28.2667 15.3333 29.2 15.3333 34.4C15.3333 40 18.2667 46.2667 20 44.4C20.5333 43.8667 21.3333 40.5333 21.8667 36.9333C22.5333 31.0667 23.3333 29.7333 28.6667 25.7333C36.4 19.8667 40.1334 13.2 38.6667 7.86666L37.4667 3.99999L36.9334 8.26666C36 17.4667 24.4 24.5333 14.6667 21.8667C6.66668 19.6 0.266682 6.93333 4.93335 2.26666C6.13335 1.06666 6.13335 0.66666 4.93335 0.66666C4.13335 0.66666 2.80002 1.86666 2.00002 3.19999Z" fill="currentColor"/>
</svg>
