<svg width="40" height="46" viewBox="0 0 40 46" fill="none" xmlns="http://www.w3.org/2000/svg">
<path d="M15.7333 4.33333C14.9333 6.6 13.8667 9.4 13.3333 10.6C12.5333 12.6 13.2 13 17.2 13C22.6667 13 22.6667 13 19.4667 5.66667L17.0667 0.466667L15.7333 4.33333Z" fill="currentColor"/>
<path d="M5.46667 14.4667C1.06667 19.6667 5.06639e-06 23.9333 1.73334 29C2.66667 31.4 2.66667 33.2667 1.86667 33.6667C1.20001 34.2 0.666672 35.1333 0.666672 35.8C0.666672 36.4667 2.53334 35.6667 4.80001 34.0667C8.00001 31.6667 10.8 31 18.1333 30.8667C29.4667 30.6 29.4667 30.6 27.8667 29C25.6 26.7333 15.2 26.3333 10.2667 28.4667C7.73334 29.4 5.46667 30.3333 5.20001 30.3333C4.93334 30.3333 4.66667 28.0667 4.66667 25.1333C4.66667 21.9333 5.86667 18.3333 8.00001 15.1333C12 9.26666 10.2667 8.73332 5.46667 14.4667Z" fill="currentColor"/>
<path d="M26 13.6667C28 15.8 29.2 19.1333 29.7333 23.5333C30.2667 29.2667 29.8667 30.6 26.9333 33.5333C23.2 37.2667 14.9333 38.3333 9.73333 35.5333C6.13333 33.6667 4.8 35.2667 8.13333 37.6667C12.4 40.8667 19.8667 41.4 24.6667 39C30.4 36.0667 34.4 27.1333 32.6667 21C31.3333 16.4667 26.5333 10.3333 24.2667 10.3333C23.4667 10.3333 24.2667 11.8 26 13.6667Z" fill="currentColor"/>
<path d="M32.1333 32.8667C31.6 33.5333 31.8667 34.6 32.6667 35C33.4667 35.5333 35.0667 38.3333 36.2667 41.1333C37.3333 44.0667 38.6667 46.0667 39.0667 45.8C39.8667 44.8667 35.6 33.2667 34 32.3333C33.3333 31.9333 32.5333 32.2 32.1333 32.8667Z" fill="currentColor"/>
</svg>
