<svg width="50" height="68" viewBox="0 0 50 68" fill="none" xmlns="http://www.w3.org/2000/svg">
<path d="M8 7.80001C8.13333 15.6667 8.26667 16.0667 9.86667 13.1333C11.2 10.7333 11.3333 8.60001 10.4 5.13334C8.4 -2.06666 8 -1.66666 8 7.80001Z" fill="currentColor"/>
<path d="M25.8666 8.60002C26 12.8667 25.6 18.0667 24.9333 20.3334C24 24.3334 24 24.3334 26.6666 19.6667L29.4666 15L28.6666 19.6667C27.3333 27.1334 26.5333 29 24.9333 29.1334C24 29.1334 20.6666 29.2667 17.4666 29.4C14.1333 29.5334 11.3333 30.3334 11.0666 31.2667C10.5333 32.6 14 33 25.3333 33H40.2666L39.7333 38.3334C39.4666 41.2667 39.6 43.6667 40 43.6667C40.6666 43.6667 49.3333 30.7334 49.3333 29.6667C49.3333 29.2667 46.5333 29 43.2 29C33.0666 29 31.3333 27 30 13.4C29.6 8.60002 27.3333 1.00002 26.2666 1.00002C26 1.00002 25.8666 4.46668 25.8666 8.60002Z" fill="currentColor"/>
<path d="M9.46667 17.8C8.66667 19.6667 8 22.8667 8 25C8 28.6 7.6 29 4 29C1.86667 29 0 29.6667 0 30.4667C0 33 8.4 30.6 10.9333 27.2667C13.3333 24.2 14.1333 16.3333 12.1333 15.1333C11.6 14.7333 10.4 15.9333 9.46667 17.8Z" fill="currentColor"/>
<path d="M8.13336 43.6667C8.13336 52.6 11.0667 67.6667 12.9334 67.6667C13.3334 67.6667 13.2 61.5334 12.8 53.9334C11.8667 41.1334 12 40.2 14.5334 38.6C16.2667 37.6667 17.3334 37.5334 17.3334 38.3334C17.3334 39 16.8 39.6667 16.2667 39.6667C15.6 39.6667 15.4667 41.6667 15.7334 43.9334L16.4 48.3334L17.6 44.6C19.0667 40.6 21.3334 39.8 21.3334 43.2667C21.3334 45.2667 21.6 45.2667 22.5334 43.8C23.2 42.7334 23.4667 41.2667 23.2 40.3334C22.8 39.5334 23.4667 38.7334 24.6667 38.7334C26.4 38.7334 26.8 40.2 26.5334 46.8667C26.2667 54.3334 28.2667 64.2 30.5334 66.6C31.0667 67.1334 31.2 61.6667 30.9334 54.3334C30.2667 40.0667 31.3334 36.7334 36 37.9334C37.8667 38.4667 38.6667 37.9334 38.6667 36.6C38.6667 34.8667 36.1334 34.4667 23.4667 34.0667L8.13336 33.6667V43.6667Z" fill="currentColor"/>
</svg>
