<svg width="48" height="68" viewBox="0 0 48 68" fill="none" xmlns="http://www.w3.org/2000/svg">
<path d="M1.2 1.93333C1.6 3.26666 2.26666 5.93333 2.66666 7.79999C3.2 9.79999 5.2 13 7.33333 15C10.8 18.3333 11.7333 18.6 17.8667 17.6667C21.6 17.1333 24.6667 16.0667 24.6667 15.2667C24.6667 14.0667 24.9333 14.0667 25.7333 15.2667C26.2667 16.0667 29.3333 17.1333 32.6667 17.6667C38.1333 18.4667 38.9333 18.2 42.1333 14.7333C44 12.7333 46.2667 8.46666 47.0667 5.26666C48.2667 0.0666606 48.2667 -0.466673 46.2667 0.466661C44.9333 0.999994 41.8667 1.26666 39.0667 1.13333C35.6 0.999994 33.0667 1.93333 30.1333 4.46666C23.4667 10.0667 24.9333 14.3333 31.7333 8.99999C35.7333 5.79999 42 5.39999 42 8.33333C42 11.6667 37.2 13 24.2667 13C13.8667 13 11.3333 12.6 9.6 10.6C8.26666 9.26666 7.33333 7.66666 7.33333 7.26666C7.33333 5.26666 14.4 6.46666 17.6 8.99999C21.6 12.0667 23.3333 12.3333 23.3333 9.93333C23.3333 6.59999 16.8 1.79999 11.6 1.53333C8.93333 1.26666 5.33333 0.733327 3.6 0.333327C1.06666 -0.333339 0.533329 0.0666606 1.2 1.93333Z" fill="currentColor"/>
<path d="M19.4667 36.3333L19.6 53.1333L14.9334 60.0667C12.4 63.9333 10.5334 67.2667 10.8 67.5333C11.0667 67.8 14 65.1333 17.2 61.6667L23.2 55.4L23.6 37.5333C24 21.4 23.7334 19.6667 21.7334 19.6667C19.6 19.6667 19.4667 21.4 19.4667 36.3333Z" fill="currentColor"/>
<path d="M26 37.1333V54.4667L32.6667 61.4C38.8 67.6667 40.9333 66.8667 35.3333 60.3333C30.6667 55 30 51.8 30 35.8C30 22.3333 29.7333 19.6667 28 19.6667C26.2667 19.6667 26 22.4667 26 37.1333Z" fill="currentColor"/>
</svg>
