<svg width="52" height="67" viewBox="0 0 52 67" fill="none" xmlns="http://www.w3.org/2000/svg">
<path d="M18.9334 17.0667C12 35.4667 11.7333 37.3333 14.6667 37.3333C15.7333 37.3333 16.6667 38 16.6667 38.6667C16.6667 39.6 15.8667 39.6 14.1333 38.6667C10.5333 36.8 8.53335 39.8667 12 41.8667C13.3333 42.6667 16.9333 45.2 20 47.6L25.7334 51.7333L32.1334 47.2C38.8 42.4 43.8667 40.8 37.7334 45.4667C34.4 48 34.2667 48.4 35.8667 52.9333C37.0667 56.4 39.4667 59.0667 44.4 62.2667C48.2667 64.6667 51.3334 66.4 51.3334 66.1333C51.3334 66 47.8667 56.8 43.4667 45.8667C39.2 34.9333 34.9334 23.7333 33.8667 20.9333C32.1334 16.1333 29.7334 14.6667 28 17.3333C27.4667 18.1333 27.8667 19.6 28.6667 20.6667C29.8667 22.1333 29.7334 23.2 28.2667 25.3333C26.4 28 26.5334 28.9333 29.3334 35.3333L32.5334 42.4L29.2 44.6667C26.1334 46.6667 25.6 46.6667 22.5334 44.6667C20.8 43.6 19.3334 42.5333 19.3334 42.2667C19.3334 42.1333 20.5334 38.8 22 34.8C24.5334 28.2667 24.6667 27.4667 22.6667 25.3333C20.6667 23.0667 20.8 22.6667 25.2 18.4C30.5334 13.2 30.8 12.1333 27.6 5.06666L25.3334 -1.15886e-05L18.9334 17.0667Z" fill="currentColor"/>
<path d="M4.53334 54.8C1.86667 61.3334 1.77555e-06 66.6667 0.266668 66.6667C0.533335 66.6667 3.6 64.8 7.2 62.4C11.2 59.7334 14.2667 56.5334 15.2 54C17.3333 48.1334 17.0667 47.4667 12.9333 45.0667L9.2 42.8L4.53334 54.8Z" fill="currentColor"/>
</svg>
