<svg width="34" height="51" viewBox="0 0 34 51" fill="none" xmlns="http://www.w3.org/2000/svg">
<path d="M2.46668 8.00001C1.93334 12 1.26668 22.1333 0.866677 30.6667L0.333344 46L3.13334 40.8C5.53334 36.4 5.66668 35.0667 4.46668 32.9333C3.53334 31.6 3.13334 30.1333 3.40001 29.8667C3.93334 29.2 11.9333 42.9333 14.2 48C14.6 49.0667 14.6 47.6 14.2 44.6667C13.8 41.7333 12.6 38.4 11.6667 37.3333C9.93334 35.3333 4.33334 23.3333 4.33334 21.6C4.33334 20.4 9.53334 26.9333 9.66668 28.1333C9.66668 28.6667 11.1333 31.6 12.8667 34.6667L16.0667 40.2667L20.0667 34.1333C27.6667 22.9333 27.5333 23.2 23.1333 17.4667C20.8667 14.6667 18.4667 10.9333 17.9333 9.20001C16.7333 6.26668 16.7333 6.26668 14.2 10.4C12.8667 12.8 11.2667 14.6667 10.6 14.6667C10.0667 14.6667 8.20001 11.6 6.46668 7.73335L3.40001 0.800011L2.46668 8.00001ZM7.80001 19.6C7.00001 20.4 3.00001 12.6667 3.00001 10.4C3.13334 9.46668 4.33334 10.9333 5.80001 13.7333C7.26668 16.6667 8.20001 19.2 7.80001 19.6ZM19.6667 18.6667C21.5333 22.2667 21.5333 23.0667 19.6667 26.6667C17.1333 31.4667 17 31.4667 14.2 27.3333C12.4667 24.6667 12.3333 23.3333 13.6667 19.3333C15.5333 13.6 17 13.4667 19.6667 18.6667Z" fill="currentColor"/>
<path d="M26.2 8.00002C23.6667 13.4667 23.5333 14.6667 25.1333 17.4667L26.8667 20.6667L27 16.6667C27.1333 14.4 27.6667 11.4667 28.2 10C28.8667 8.53336 29 11.3334 28.6 16.6667C28.0667 24.1334 27.2667 26.9334 24.3333 30.6667C19.8 36.6667 16.3333 44.2667 16.3333 48.1334C16.3333 52 17.9333 50.2667 20.3333 44C21.2667 41.4667 24.4667 35.8667 27.2667 31.4667C32.7333 23.0667 33.1333 20.6667 30.6 9.20002L29 1.60002L26.2 8.00002Z" fill="currentColor"/>
<path d="M29.8 30.5333C27.2667 34.1333 27.1333 35.0667 28.6 40.5333C30.7333 48.6667 32.3333 48.2667 32.2 39.6C32.0667 35.7333 32.4667 31.2 32.8667 29.6C34.2 25.6 33 25.8667 29.8 30.5333Z" fill="currentColor"/>
</svg>
