<svg width="53" height="71" viewBox="0 0 53 71" fill="none" xmlns="http://www.w3.org/2000/svg">
<path d="M39.3333 0.466665C39.3333 1.26666 40.2667 4.2 41.3333 6.73333C42.4 9.4 43.3333 12.8667 43.3333 14.3333C43.3333 17.1333 38.8 23.5333 30.9334 31.9333C28 35 27.4667 36.3333 28.8 37.8C29.6 38.7333 30.8 39.2667 31.4667 38.8667C34 37.4 44.5333 22.6 43.6 21.8C43.2 21.2667 43.7333 21.2667 45.0667 21.8C48.4 23 47.8667 24.7333 42.6667 29.4C40.1333 31.6667 38 33.9333 38 34.6C38 36.8667 44.6667 35.5333 48.2667 32.4667C52.8 28.4667 53.0667 21.4 48.8 12.7333C45.7333 6.33333 39.4667 -1.8 39.3333 0.466665Z" fill="currentColor"/>
<path d="M8.53335 6.46664C1.86668 13.1333 -1.99998 29 3.06668 29C4.26668 29 6.66668 29.4 8.40002 29.8C12.8 31 12 28.4666 7.06668 25.9333L2.66668 23.6666L6.66668 24.4666C8.93335 25 11.3334 26.2 12.1334 27.1333C14.2667 29.8 32.1334 29.6666 33.2 27C33.7334 25.4 32.5334 25 25.8667 25.1333C20.4 25.2666 17.2 24.7333 15.6 23.2666C14.4 22.2 11.8667 21 10 20.7333C7.06668 20.3333 6.66668 19.8 7.06668 15.6666C7.33335 13.1333 8.66668 9.39997 10.1334 7.26664C13.2 2.99997 12.4 2.59997 8.53335 6.46664Z" fill="currentColor"/>
<path d="M1.06672 40.3333C2.00006 52.2 6.26672 60.4667 14.5334 65.9333C19.3334 69.2667 22.4001 70.3333 26.5334 70.3333L32.0001 70.2L26.8001 68.3333C24.0001 67.4 19.8667 64.8667 17.7334 62.7333C13.4667 58.7333 7.33339 47.2667 7.33339 43.2667C7.33339 41.6667 6.80006 41.2667 5.73339 41.8C4.80006 42.3333 5.46672 40.8667 7.20006 38.6C8.80006 36.2 9.46672 34.3333 8.66672 34.3333C7.86672 34.3333 7.60006 33.6667 8.00006 33C8.53339 32.2 7.06672 31.6667 4.53339 31.6667H0.266724L1.06672 40.3333Z" fill="currentColor"/>
<path d="M18.1333 35.2667C19.8667 37.2667 22 39.5333 22.8 40.3333C23.6 41 27.0667 45.4 30.5334 50.0667C36.9334 58.4667 39.7334 59.8 40.4 54.8667C40.6667 52.2 26.6667 36.0667 24.5334 36.6C23.8667 36.8667 23.4667 36.6 23.4667 35.9333C24 32.7333 22.9334 31.6667 19.0667 31.6667H14.9333L18.1333 35.2667Z" fill="currentColor"/>
<path d="M18 47C14.4 50.7333 13.8667 51.9333 14.8 54.8667L16 58.4667L20.4 52.8667C22.6667 49.6667 24.6667 46.4667 24.6667 45.5333C24.6667 42.0667 22.2667 42.6 18 47Z" fill="currentColor"/>
<path d="M45.4667 57.8C38.5334 64.3333 37.8667 67.1333 44.5334 62.2C48.6667 59.2667 53.3334 53.2667 52.4001 52.3333C52.1334 52.0667 49.0667 54.6 45.4667 57.8Z" fill="currentColor"/>
</svg>
