<svg width="36" height="70" viewBox="0 0 36 70" fill="none" xmlns="http://www.w3.org/2000/svg">
<path d="M2.26667 2.79999C1.86667 4.39999 2.8 8.13332 4.26667 11.3333L7.06667 17.0667L3.46667 21.4667C1.06667 24.2667 3.68264e-06 26.6667 0.533337 28.5333C0.933337 30.1333 1.33334 32.9333 1.33334 34.8C1.33334 36.6667 2.26667 39.3333 3.33334 40.8C5.2 43.2 5.33334 42.9333 4.53334 38C4.13334 35.0667 3.46667 31.6 3.2 30.4C2.8 29.2 4.4 26.1333 6.8 23.3333L11.0667 18.5333L8.26667 12.5333C6.66667 9.33332 5.33334 5.06666 5.33334 3.33332C5.33334 -0.666679 3.2 -1.06668 2.26667 2.79999Z" fill="currentColor"/>
<path d="M32 4.4C32 6 30.8 9.73333 29.3333 12.6667C26 19.3333 26 19.7333 30 25.6C32.4 29.2 33.3333 32.2667 33.3333 36.9333C33.3333 41.6 33.7333 42.8 34.6667 41.3333C36.8 38 36.1333 28.9333 33.4667 24C31.0667 19.3333 31.0667 11.4667 33.4667 9.86666C35.0667 8.93333 34.9333 1.33333 33.3333 1.33333C32.6667 1.33333 32 2.66666 32 4.4Z" fill="currentColor"/>
<path d="M14.2667 3.59997C12.5333 5.3333 13.3333 10.2666 15.7333 12.5333C18.1333 14.5333 18.4 14.5333 20.6667 12C22.6667 9.7333 22.8 8.79997 21.6 5.99997C20.1333 2.9333 16.2667 1.59997 14.2667 3.59997ZM20 8.1333C20 9.46664 19.2 10.6666 18.1333 10.6666C15.6 10.6666 14.4 8.79997 15.4667 6.26664C16.5333 3.46664 20 4.9333 20 8.1333Z" fill="currentColor"/>
<path d="M11.6 22.4C8.13334 25.8667 5.33334 29.2 5.33334 29.7333C5.33334 31.4667 16.2667 45.4667 17.0667 44.8C17.3333 44.4 16.1333 40.6667 14.1333 36.5333L10.5333 28.9333L14.2667 25.0667L18 21.2L21.4667 25.4667C25.2 30 25.0667 31.6 20.1333 37.6C19.2 38.8 18.6667 40.5333 18.8 41.2C19.3333 42.6667 29.3333 30.1333 29.3333 28.2667C29.3333 27.7333 26.8 24.6667 23.6 21.6L17.8667 16L11.6 22.4Z" fill="currentColor"/>
<path d="M16.9333 30.2667C15.6 31.4667 15.8667 37.0667 17.2 37.8667C19.4667 39.3333 21.6 35.0667 20 32.1333C18.4 29.0667 18.1333 28.9333 16.9333 30.2667Z" fill="currentColor"/>
<path d="M17.7333 46.9333C13.3333 52 12.9333 53.3333 15.4667 56.1333C17.4667 58.4 17.6 59.3333 16.2667 61.3333C14.1333 64.8 14.2667 67.3333 16.6667 69.3333C18.2667 70.6667 18.4 70.1333 17.7333 66.1333C17.2 62.9333 17.4667 61.3333 18.5333 61.3333C20.6667 61.3333 20.4 58.5333 17.7333 55.7333C16.5333 54.4 15.8667 53.0667 16.2667 52.6667C16.5333 52.2667 18.2667 53.8667 19.8667 56.1333C22.6667 59.8667 22.6667 60.4 20.8 62.5333C19.6 63.8667 18.6667 65.3333 18.6667 66C18.6667 66.5333 19.8667 65.7333 21.3333 64C24.6667 60.1333 24.6667 59.3333 21.3333 54.5333C18.6667 50.9333 18.6667 50.5333 20.8 47.3333C23.4667 43.2 21.4667 42.9333 17.7333 46.9333Z" fill="currentColor"/>
</svg>
