<svg width="29" height="49" viewBox="0 0 29 49" fill="none" xmlns="http://www.w3.org/2000/svg">
<path d="M1.06667 0.800022C0.4 1.33335 0 5.73336 0 10.6667C0 20.6667 3.33333 31.7334 9.2 41.8667L13.0667 48.4L17.0667 40.5334C23.4667 27.7334 26.9333 15.0667 26 7.73336C24.8 -1.19998 22.6667 -1.59998 22.6667 7.06669C22.6667 12.2667 22.1333 14.5334 20.6667 15.2C19.6 15.6 19.0667 16.6667 19.3333 17.6C19.8667 18.8 18.4 19.3334 14.1333 19.3334C10 19.3334 8.53333 18.9334 8.93333 17.7334C9.33333 16.6667 8.66667 16 7.33333 16C5.6 16 5.2 16.8 5.6 19.3334C6 21.0667 5.73333 22.2667 5.2 21.8667C2.93333 20.5334 4 14.9334 7.06667 12.9334L10 10.8H7.06667C4.13333 10.6667 3.6 9.46669 2.4 2.26669C2.13333 0.800022 1.6 0.266689 1.06667 0.800022ZM16.4 29.7334C15.0667 33.2 13.7333 36 13.3333 36C12.4 36 8.8 26.6667 9.6 26.1334C10.2667 25.4667 18 23.0667 18.4 23.3334C18.5333 23.4667 17.6 26.4 16.4 29.7334Z" fill="currentColor"/>
<path d="M25.0667 23.7333C24.6667 25.2 24.9334 27.3333 25.6 28.6667C26.4 29.8667 26.5334 32.8 26.1334 35.0667C25.4667 38.4 25.6 38.9333 26.9334 37.6C29.0667 35.4667 29.2 24.6667 27.2 22.6667C26.1334 21.6 25.4667 21.8667 25.0667 23.7333Z" fill="currentColor"/>
</svg>
