<svg width="48" height="59" viewBox="0 0 48 59" fill="none" xmlns="http://www.w3.org/2000/svg">
<path d="M1.66666 4.20001C0.866657 7.80001 1.53332 9.66667 5.79999 15.8C12.8667 26.0667 13.6667 26.6 16.4667 22.3333C18.2 19.6667 18.3333 18.4667 17.1333 17.2667C16.0667 16.2 15.6667 16.2 15.6667 17.4C15.6667 21.2667 12.7333 18.3333 7.79999 9.53334L2.59999 0.0666752L1.66666 4.20001Z" fill="currentColor"/>
<path d="M43.6667 3.26669C43.6667 6.46669 36.7333 19.5334 34.3333 21C32.6 22.0667 32.6 25.6667 34.3333 25.6667C35 25.6667 37.8 22.2 40.4667 18.0667C45.4 10.3334 48.0667 0.333353 45.1333 0.333353C44.3333 0.333353 43.6667 1.66669 43.6667 3.26669Z" fill="currentColor"/>
<path d="M28.0667 11.2667L23.8 15.5333L20.3333 12.3333C17.1333 9.26667 17 9.26667 17 11.9333C17 13.4 17.9333 15.4 19 16.3333C20.0667 17.2667 21 18.3333 21 18.8667C21 19.4 18.0667 23.6667 14.6 28.4667C11.1333 33.4 6.46666 40.6 4.33333 44.7333L0.333328 52.2L3.53333 55.5333C7.4 59.6667 9.66666 60.0667 7.4 56.3333C5.93333 53.9333 6.46666 52.0667 11.9333 41.2667C15.4 34.6 21.1333 25.2667 24.8667 20.8667C35.2667 7.80001 37.2667 2.06667 28.0667 11.2667Z" fill="currentColor"/>
<path d="M30.0667 17.8C27.2667 20.0667 25 22.3333 25 22.8667C25 23.5333 26.3333 25.4 27.8 27.1333C32.0667 31.8 41.8 47.1333 43 50.7333C43.6667 52.8667 43.1333 54.6 41.5333 56.4667C40.3333 57.8 39.8 59 40.6 59C42.3333 59 47.6667 53.1333 47.6667 51.1333C47.6667 48.4667 43.6667 41.5333 36.2 31.4C30.0667 23.1333 29.4 21.6667 31.1333 20.2C33 18.7333 36.3333 13.6667 35.4 13.6667C35.1333 13.8 32.7333 15.5333 30.0667 17.8Z" fill="currentColor"/>
<path d="M22.2 27.2667C22.0667 28.2 22.0667 29.4 22.2 29.9333C22.2 30.6 21.8 31 21.1333 31C19.5333 31 15.6667 38.6 15.6667 41.6667C15.6667 42.8667 16.6 45 17.8 46.4667C19.8 48.8667 19.8 48.8667 19.1333 45.4C18.7333 43.5333 18.8667 40.4667 19.5333 38.8667L20.6 35.8L22.3333 39L23.9333 42.0667L26.4667 38.8667C28.6 35.9333 28.8667 35.9333 29.8 38.0667C30.2 39.4 30.3333 42.2 29.8 44.3333C28.8667 49.2667 29.6667 49.4 32.2 44.6C34.3333 40.3333 33.4 37 28.0667 30.3333C24.2 25.4 22.4667 24.6 22.2 27.2667Z" fill="currentColor"/>
</svg>
