<svg width="47" height="56" viewBox="0 0 47 56" fill="none" xmlns="http://www.w3.org/2000/svg">
<path d="M0.333348 3.26667C3.00001 10.4667 22.8667 55.6667 23.1334 55.4C23.4 55 44.2 7 45.9333 2.60001C46.3333 1.80001 45.9333 1 45.2667 1C44.0667 1 32.3334 23.8 24.7334 41C22.8667 45.1333 22.4667 45.4 21.6667 43C19 35.5333 1.66668 1 0.600014 1C-0.0666522 1 -0.199986 2.06667 0.333348 3.26667Z" fill="currentColor"/>
<path d="M20.7333 7.8C19.2666 12.8667 19 15.5333 19.9333 16.7333C20.7333 17.6667 21 21 20.6 24.3333C20.0666 29.2667 20.3333 30.0667 21.6666 29C23 27.9333 23.8 28.0667 24.7333 29.8C25.5333 31.4 25.8 29.9333 25.4 25.4C25 21.6667 25.4 17.5333 26.0666 16.0667C27.1333 14.2 27.1333 13 26.0666 11.9333C25.2666 11.1333 24.2 8.2 23.8 5.53333L23 0.600002L20.7333 7.8Z" fill="currentColor"/>
<path d="M21.6667 33.2667C21.1333 35.2667 21.2667 37.8 22.0667 39.1333C23.1333 41 23.4 40.8667 24.2 37.8C24.7333 35.8 24.4667 33.2667 23.8 31.9333C22.7333 30.0667 22.4667 30.2 21.6667 33.2667Z" fill="currentColor"/>
</svg>
