<svg width="39" height="70" viewBox="0 0 39 70" fill="none" xmlns="http://www.w3.org/2000/svg">
<path d="M8.46667 4.53337C3.13334 10 -0.999996 21.4667 0.333338 27.6C1.26667 31.7334 16.7333 68 18.3333 69.7334C18.8667 70.2667 20.0667 68.8 21 66.4C21.9333 64 25.6667 55.7334 29.2667 48C37.5333 30.5334 37.9333 28.1334 34.4667 24L31.8 20.6667L31.6667 24C31.6667 26 32.4667 28.2667 33.4 29.2C34.7333 30.5334 34.6 30.6667 32.7333 30C30.3333 29.0667 28.2 33.4667 29.8 36.1334C30.3333 37.2 30.2 37.3334 29.2667 36.8C27.2667 35.6 21.8 46.6667 23.6667 48.5334C24.3333 49.2 25 50.8 25 52C24.8667 53.6 24.6 53.6 23.5333 51.6C21.5333 48.2667 19.6667 50.1334 19.5333 55.7334C19.4 58.8 19.1333 59.6 18.7333 57.6C18.4667 56 17.4 54.6667 16.6 54.6667C15.4 54.6667 15.4 54.4 16.6 53.6C17.9333 52.8 16.8667 49.8667 13 42C10.0667 36.1334 7.66667 30.6667 7.66667 29.7334C7.66667 27.6 6.06667 27.4667 3.66667 29.6C2.6 30.5334 2.86667 30 4.2 28.2667C7.13334 24.8 6.06667 22.8 2.73334 25.4667C0.733338 27.0667 0.600004 27.0667 1.66667 25.3334C2.2 24.2667 3.53334 22.4 4.33334 21.3334C5.26667 20.2667 6.33334 17.0667 6.86667 14.4C7.4 11.6 9.26667 7.60004 11.2667 5.33337C16.2 -0.533296 14.2 -1.06663 8.46667 4.53337Z" fill="currentColor"/>
<path d="M26.0667 4.66667C28.3333 7.2 30.6 11.2 31 13.6C31.5333 16 33.4 19.7333 35.2667 22L38.6 26L37.6667 20.6667C36.4667 13.6 32.4667 6.26667 28.2 2.8C22.7333 -1.46667 21.6667 -0.533335 26.0667 4.66667Z" fill="currentColor"/>
<path d="M17 27.3333C16.0667 28.4 13.9334 29.3333 12.2 29.3333C9.93335 29.3333 9.26669 29.8666 9.80002 31.3333C10.3334 32.4 11.8 33.3333 13.2667 33.3333C14.8667 33.3333 16.3334 34.8 17.2667 37.4666L18.7334 41.6L20.4667 37.4666C21.5334 34.8 23.1334 33.3333 24.7334 33.3333C26.2 33.3333 27.6667 32.4 28.2 31.3333C28.7334 30 28.0667 29.3333 26.0667 29.3333C24.4667 29.3333 22.2 28.4 21 27.3333C19 25.4666 18.6 25.4666 17 27.3333Z" fill="currentColor"/>
</svg>
