<svg width="42" height="68" viewBox="0 0 42 68" fill="none" xmlns="http://www.w3.org/2000/svg">
<path d="M5.00001 5.73333C2.20001 10 1.13334 13.4667 0.600005 20.1333C0.200005 25.8667 0.466672 29.3333 1.53334 29.8667C3.40001 31.0667 3.40001 36.9333 1.53334 38.1333C-0.999995 39.6 1.13334 54.5333 4.60001 61.3333L7.80001 67.4667L7.26667 41.3333C7.00001 26.8 7.26667 12.1333 8.06667 8C8.86667 4 9.26667 0.53333 9.13334 0.399997C9.00001 0.13333 7.13334 2.53333 5.00001 5.73333Z" fill="currentColor"/>
<path d="M32.8667 4.4C33.9333 8.93333 34.0667 60.1333 32.8667 64.5333C31.5333 70 33.2667 68.5333 36.3333 61.6C40.6 52.4 41.9333 42.6667 39.5333 39.0667C37 35.2 37.1333 31.4667 39.8 29.2C42.6 26.8 41.4 15.4667 37.5333 8C34.0667 1.46667 31.5333 -0.533335 32.8667 4.4Z" fill="currentColor"/>
<path d="M15 28C13.5333 29.4667 12.3333 32 12.2 33.6C11.6667 43.4667 14.3333 48 20.4667 48C28.2 48 31.5333 34.9333 25.5333 28.5333C21.9333 24.6667 18.6 24.4 15 28ZM22.0667 35.2C22.4667 36.2667 22.0667 38.1333 21.1333 39.3333C19.6667 41.3333 19.4 41.3333 17.8 39.4667C15.8 37.0667 16.7333 33.3333 19.5333 33.3333C20.4667 33.3333 21.6667 34.1333 22.0667 35.2Z" fill="currentColor"/>
</svg>
