<svg width="25" height="50" viewBox="0 0 25 50" fill="none" xmlns="http://www.w3.org/2000/svg">
<path d="M0.666687 1.86664C0.666687 2.66665 2.66669 3.33331 5.06669 3.59998L9.33335 3.99998L9.73335 17.6C10 28.1333 9.73335 31.3333 8.40002 31.3333C7.46669 31.3333 7.73335 32 9.20002 32.8C10.5334 33.6 11.0667 34.6666 10.4 35.2C9.73335 35.6 10 38.6666 11.0667 42.6666L13.0667 49.3333L15.2 42.6666C16.4 38.9333 16.9334 35.6 16.2667 35.2C15.6 34.6666 16.1334 33.6 17.4667 32.8C18.9334 32 19.2 31.3333 18.2667 31.3333C16.9334 31.3333 16.6667 28.1333 16.9334 17.6L17.3334 3.99998L21.0667 3.59998C23.0667 3.33331 24.4 2.53331 24 1.86664C22.9334 0.266644 0.666687 0.266644 0.666687 1.86664Z" fill="currentColor"/>
</svg>
