<svg width="36" height="68" viewBox="0 0 36 68" fill="none" xmlns="http://www.w3.org/2000/svg">
<path d="M19.8 1.6C19.6667 2.93333 16.6 6.93333 12.8667 10.5333C6.60004 16.5333 6.20004 17.4667 6.46671 22.6667C6.86671 27.4667 6.46671 28.5333 3.66671 30.1333L0.333374 31.8667L4.06671 32C7.13337 32 7.66671 32.5333 7.80004 35.6C7.80004 39.2 7.93337 39.0667 9.40004 34.6667C10.3334 32.1333 10.6 29.7333 10.0667 29.6C9.40004 29.3333 9.00004 26.6667 9.00004 23.7333C9.00004 19.2 9.93337 17.4667 14.2 13.0667C20.3334 7.06666 21.8 7.33333 28.8667 15.3333C33.1334 20.2667 34.0667 24.9333 31.6667 29.3333C30.7334 31.0667 30.7334 32.1333 31.6667 32.6667C32.3334 33.0667 33 35.0667 33 36.9333C33 44.5333 34.4667 38.4 35.1334 28L35.9334 16.9333L28.6 10.1333C24.6 6.4 21 2.4 20.6 1.33333C20.0667 -0.266669 19.8 -0.133335 19.8 1.6Z" fill="currentColor"/>
<path d="M18.8667 14.8C19.2667 17.0667 19.8 21.7333 19.8 25.2L19.9334 31.3333L21.1334 26C23 16.8 22.6 10.6667 20.2 10.6667C18.4667 10.6667 18.2 11.6 18.8667 14.8Z" fill="currentColor"/>
<path d="M13.1334 27.8666C13 29.7333 14.3334 32.5333 15.9334 34.2666C18.4667 37.0666 19 39.3333 19.6667 52.4L20.4667 67.3333L21 52.5333C21.6667 38.9333 21.9334 37.4666 25.4 33.4666C30.3334 27.6 29.9334 25.0666 24.8667 30.1333L20.7334 34.2666L17.8 31.4666C16.0667 30 14.3334 27.7333 13.9334 26.6666C13.5334 25.3333 13.1334 25.8666 13.1334 27.8666Z" fill="currentColor"/>
</svg>
