<svg width="28" height="56" viewBox="0 0 28 56" fill="none" xmlns="http://www.w3.org/2000/svg">
<path d="M23.7333 4.39999C21.6 7.33333 21.3333 8.79999 22.2667 10.5333C23.3333 12.5333 23.8667 12.6667 24.8 11.2C25.3333 10.1333 25.2 8.66666 24.4 7.73333C23.3333 6.39999 23.4667 6.13333 25.2 6.79999C26.8 7.46666 27.3333 6.79999 27.3333 4.13333C27.3333 -0.266672 27.0667 -0.133339 23.7333 4.39999Z" fill="currentColor"/>
<path d="M5.33335 9.33331C8.26668 11.8666 10.9333 14 11.3333 14C11.7333 14 11.8667 18.4 11.7333 23.7333C11.4667 31.4666 11.7333 33.6 13.2 33.6C14.5333 33.6 14.8 32.8 14 30.6666C13.3333 29.0666 13.4667 26.9333 14 26C14.6667 24.9333 14.8 23.6 14.4 22.9333C13.2 20.9333 13.0667 16.2666 14.1333 13.0666C15.3333 9.73331 12.6667 7.99997 10 10.4C8.66668 11.6 8.53335 11.6 9.20001 10.4C9.73335 9.46664 8.53335 7.99997 6.13335 6.66664C-0.133321 3.46664 -0.399988 4.39997 5.33335 9.33331Z" fill="currentColor"/>
<path d="M18.5333 10.2667C18.9333 11.8667 18.5333 12.6667 17.3333 12.6667C16.2667 12.6667 15.3333 13.7333 15.3333 14.9333C15.3333 16.9333 15.6 17.0667 16.6667 15.3333C17.6 13.7333 18.2667 13.7333 19.4667 14.9333C22 17.4667 21.8667 26.2667 19.4667 29.2C17.4667 31.6 17.4667 31.7333 19.6 30.9333C21.6 30.2667 21.8667 30.8 21.4667 34.4C21.2 36.8 20.9333 39.7333 20.8 41.0667C20.8 42.4 20.1333 43.0667 19.3333 42.6667C16.9333 41.2 18 43.2 22.2667 48.2667C24.6667 51.0667 25.3333 52.2667 23.7333 50.9333C22 49.3333 20.8 49.0667 20.4 50C19.8667 51.7333 15.3333 50.2667 15.3333 48.4C15.3333 47.6 16.1333 47.6 17.2 48.5333C18.5333 49.6 19.3333 49.7333 20 48.6667C20.8 47.4667 15.6 44.6667 12.5333 44.6667C11.0667 44.6667 11.0667 43.7333 12.5333 40.8C13.3333 39.4667 13.3333 37.7333 12.5333 36.5333C11.7333 35.2 11.3333 35.6 11.3333 38.2667C11.3333 40.6667 10.4 42.1333 8.66667 42.6667C5.86667 43.6 -0.133328 51.0667 1.06667 52.1333C1.86667 52.9333 7.60001 50.2667 8.66667 48.6667C9.06667 48.1333 10.8 47.3333 12.6667 46.8C14.5333 46.4 15.3333 46.4 14.4 46.8C12.1333 47.7333 15.2 52.6667 18 52.6667C19.2 52.6667 21.2 53.4667 22.6667 54.5333C24.8 56 25.6 56 26.8 54.6667C28 53.4667 27.7333 51.8667 25.8667 47.8667C24 43.8667 23.4667 39.4667 23.3333 28.6667C23.3333 16.5333 22.9333 14.2667 20.5333 11.3333C18.6667 9.20001 18 8.80001 18.5333 10.2667Z" fill="currentColor"/>
</svg>
