<svg width="37" height="65" viewBox="0 0 37 65" fill="none" xmlns="http://www.w3.org/2000/svg">
<path d="M17.8 4.39998C16.6 9.46665 18.3333 12.5333 20.6 9.73331C21.6667 8.53331 21.6667 6.79998 20.4667 3.99998L18.7333 -1.90735e-05L17.8 4.39998Z" fill="currentColor"/>
<path d="M18.3333 17.2C18.3333 23.4666 16.7333 24 13.1333 19.2C9.66667 14.5333 6.86667 15.3333 3.13334 22.2666L0.733337 26.8L6.2 35.2C9.13334 39.8666 11.6667 44.2666 11.6667 44.9333C11.6667 45.6 12.6 47.0666 13.6667 48.1333C14.7333 49.3333 15.6667 51.6 15.6667 53.3333C15.6667 54.9333 16.4667 58.2666 17.4 60.5333L19.1333 64.6666L20.6 60.2666C21.4 58 22.4667 54.1333 23 51.8666C23.4 49.6 26.7333 43.0666 30.3333 37.2L36.8667 26.6666L33.9333 21.4666C30.2 14.8 29 14.4 25.6667 19.3333C22.3333 24.2666 20.2 23.8666 20.7333 18.4C21 16.1333 20.6 13.8666 19.8 13.3333C18.8667 12.8 18.3333 14.2666 18.3333 17.2ZM13.8 26.6666C14.7333 29.2 15.6667 33.2 15.6667 35.6L15.5333 40L13.8 36C12.8667 33.7333 10.7333 30.9333 9.26667 29.4666C7 27.4666 6.73334 26.6666 8.06667 24.5333C10.3333 20.9333 11.5333 21.3333 13.8 26.6666ZM30.3333 26.8C30.3333 27.8666 29.2667 29.7333 27.8 31.2C26.4667 32.5333 24.7333 35.3333 23.9333 37.4666L22.6 41.3333L22.4667 36.2666C22.3333 33.4666 23.2667 29.0666 24.3333 26.4C26.0667 22.4 26.6 22 28.3333 23.3333C29.4 24.2666 30.3333 25.8666 30.3333 26.8Z" fill="currentColor"/>
</svg>
