<svg width="46" height="70" viewBox="0 0 46 70" fill="none" xmlns="http://www.w3.org/2000/svg">
<path d="M20.6667 2.53332C20.2667 3.86666 20.6667 6.66666 21.4667 8.79999L22.9333 12.6667L24.2667 9.33332C25.6 5.73332 24.6667 -1.08331e-05 22.6667 -1.08331e-05C22 -1.08331e-05 21.2 1.06666 20.6667 2.53332Z" fill="currentColor"/>
<path d="M10.1333 11.0667C8.26667 14.2667 5.2 18.2667 3.33333 20C1.46667 21.7333 0 23.6 0 24.2667C0 26.1333 7.33333 21.7333 11.7333 17.4667L15.7333 13.3333L17.6 16.4C19.2 19.0667 18.9333 20.4 15.0667 30L10.6667 40.6667V30.8V20.9333L7.86667 23.4667C5.06667 25.8667 5.06667 26.6667 6 46C6.53333 56.9333 7.46667 66.9333 8.13333 68C9.06667 69.6 9.2 69.3333 9.33333 67.0667C9.33333 63.4667 14.1333 45.7333 16.8 38.9333C20.1333 30.6667 22.9333 25.0667 23.3333 25.6C23.4667 25.8667 25.6 30.9333 28 36.9333C31.8667 46.6667 32.6667 47.7333 34.8 46.5333C36.1333 45.8667 37.8667 44.1333 38.6667 42.6667C40.6667 38.9333 40.2667 26.2667 38 23.2C36.2667 20.9333 36.1333 21.4667 36 30.1333C36 35.3333 35.6 40 35.2 40.4C34.6667 40.9333 32.5333 36.1333 30.4 29.8667C27.3333 20.4 26.9333 18 28.2667 16.1333C29.2 14.9333 30 13.7333 30.2667 13.4667C30.4 13.2 32.1333 14.9333 34.1333 17.2C37.7333 21.6 45.3333 26.2667 45.3333 24.1333C45.3333 23.6 44.4 22.2667 43.2 21.2C42.1333 20.2667 39.0667 16.4 36.4 12.4C33.8667 8.53333 31.2 5.33333 30.6667 5.33333C30 5.33333 28 7.73333 26.2667 10.6667L23.0667 16.1333L19.4667 10.6667C17.6 7.73333 15.3333 5.33333 14.6667 5.33333C14 5.33333 11.8667 7.86666 10.1333 11.0667Z" fill="currentColor"/>
<path d="M35.6 47.7333C33.3333 49.2 32.2667 50.6667 32.8 52C33.2 53.0667 34.2667 57.6 35.2 61.8667C36.2667 66.6666 37.3333 69.2 37.8667 68.1333C38.9333 66.4 40.8 45.2 39.8667 45.4667C39.6 45.4667 37.7333 46.5333 35.6 47.7333Z" fill="currentColor"/>
</svg>
