<svg width="47" height="58" viewBox="0 0 47 58" fill="none" xmlns="http://www.w3.org/2000/svg">
<path d="M1.79999 0.533329C-1.13334 5.2 4.19999 22.1333 11.1333 30.4C14.7333 34.6667 15.4 38.2667 12.3333 37.2C9.26666 36 9.79999 41.0667 13.6667 48.6667C18.6 58.4 19.5333 58 18.7333 46C18.2 38.8 18.4667 35.3333 19.4 35.3333C21.4 35.3333 23 38.2667 22.6 40.9333C22.3333 42.2667 22.7333 44.4 23.5333 45.6C24.6 47.6 24.8667 47.4667 25.6667 44C27.4 36.5333 27.8 35.3333 29.2667 35.3333C30.2 35.3333 30.4667 39.0667 30.0667 46.6667L29.2667 58L31.8 54.8C37 48.2667 40.2 36.6667 37 36.6667C36.3333 36.6667 35.6667 35.8667 35.6667 34.8C35.6667 33.7333 34.8667 32.5333 34.0667 32.2667C32.7333 31.7333 32.8667 31.4667 34.2 31.4667C38.4667 31.2 46.3333 16 46.3333 8C46.3333 0.133331 44.2 -2.13334 43.1333 4.66666C42.0667 11.4667 34.7333 25.4667 32.6 24.9333C31.6667 24.6667 29.9333 23.4667 28.6 22.4C25.5333 19.4667 24.2 21.2 26.2 25.4667C28.0667 29.6 26.6 31.8667 23.1333 30.5333C21.6667 30 21.1333 28.9333 21.8 27.4667C22.2 26.2667 23 24.1333 23.4 22.6667C24.0667 20 24.0667 20 21.2667 22.5333C19.6667 23.8667 18.7333 25.7333 19.2667 26.5333C19.8 27.3333 18.7333 26.8 17.1333 25.3333C15.4 23.8667 13.6667 22.8 13.1333 22.8C10.8667 23.3333 7.53333 19.2 6.99999 15.2C5.93333 7.33333 2.86666 -1.2 1.79999 0.533329Z" fill="currentColor"/>
</svg>
