<svg width="48" height="64" viewBox="0 0 48 64" fill="none" xmlns="http://www.w3.org/2000/svg">
<path d="M23.4667 0.333335C21.7333 16.7333 20.9333 19.9333 16.8 23.9333C11.2 29.5333 11.3333 34.0667 17.2 39.6667C21.3333 43.5333 21.7333 44.7333 22.8 55.1333C23.6 63.8 24 65.4 24.8 62.3333C25.2 60.0667 25.7333 55.1333 25.8667 51.2667C26 45 26.5333 43.6667 30.6667 39.8C36.6667 34.2 36.8 29.5333 31.3333 24.0667C28 20.7333 26.9333 18.2 25.4667 9.26667C24.5333 3.26667 23.6 -0.733332 23.4667 0.333335ZM28.9333 25.9333C32.6667 28.8667 33.0667 33.2667 30.1333 36.2C25.4667 40.8667 18.2667 39.2667 16.1333 33.2667C15.6 31.6667 16.5333 29.8 18.9333 27.5333C22.8 23.9333 25.7333 23.5333 28.9333 25.9333Z" fill="currentColor"/>
<path d="M20.6667 28.0667C15.0667 32.6 20.8 39.8 27.3333 36.3333C30.8 34.4667 30.8 28.8667 27.4667 27C24.1333 25.2667 24.1333 25.2667 20.6667 28.0667Z" fill="currentColor"/>
<path d="M10 11.4C4.40001 15.8 0.666672 22.0667 0.666672 27C0.666672 33.5333 4.93334 43.4 8.80001 46.2C12.9333 49 13.6 47.9333 10.2667 43.6667C8.80001 41.8 7.20001 38.4667 6.66667 36.3333C5.60001 31.2667 8.13334 17.8 10.8 14.8667C13.4667 11.9333 12.8 9.26667 10 11.4Z" fill="currentColor"/>
<path d="M35.3333 11.4C35.3333 12.4667 36 13.9333 36.8 14.3333C39.0667 15.8 40.9333 21.9333 41.4667 29.9333C41.7333 34.7333 41.4667 37.6667 40.5333 37.6667C39.8667 37.6667 39.4667 38.2 39.8667 38.8667C40.2667 39.5333 39.3333 41.6667 37.8667 43.5333C34.4 47.9333 35.0667 49 39.2 46.0667C45.8667 41.4 49.2 27.8 45.4667 20.6C42.6667 15.2667 35.3333 8.59999 35.3333 11.4Z" fill="currentColor"/>
</svg>
