<svg width="49" height="55" viewBox="0 0 49 55" fill="none" xmlns="http://www.w3.org/2000/svg">
<path d="M20.9333 4.33334C20.9333 10.0667 19.7333 15.6667 17.3333 21.2667C16.2667 24.0667 15.3333 27.6667 15.3333 29.2667C15.4667 32.3333 15.4667 32.2 18.6667 28.6C20.5333 26.4667 21.7333 24.3333 21.3333 23.6667C20.4 22.2 23.4667 15.5333 24.6667 16.3333C25.2 16.7333 26.1333 18.8667 26.5333 21.2667L27.4667 25.6667L29.3333 21.6667C31.4667 17 31.8667 17.9333 30 23C29.0667 25.2667 28 26.3333 26.6667 25.8C25.0667 25.2667 25.0667 25.6667 26.2667 28.3333C27.4667 31.1333 28.1333 31.4 29.8667 29.9333C31.7333 28.6 31.7333 28.6 30.2667 30.6C29.2 31.8 28.8 33.6667 29.3333 34.6C29.8667 35.5333 28.9333 34.8667 27.3333 33L24.5333 29.6667L26.4 33.6667C28.1333 37.1333 28.1333 38.0667 26.5333 41.4C24.8 44.4667 24.8 45.4 26.4 47.6667C28.1333 50.0667 28.4 49.8 31.2 43C32.9333 38.8667 35.3333 35 36.6667 34.3333C38.8 33.1333 38.6667 33.8 36 38.7333C32.1333 45.5333 27.8667 55.5333 29.6 53.6667C31.6 51.5333 40.6667 38.3333 40.6667 37.6667C40.6667 37.4 42.2667 33.6667 44.1333 29.4C46.1333 25.1333 47.8667 21 48.2667 20.3333C48.5333 19.5333 47.8667 20.2 46.8 21.6667C41.6 28.2 40.4 29.1333 38.5333 28.7333C37.3333 28.4667 35.2 25 33.4667 21C31.8667 16.8667 29.7333 13.8 28.8 14.0667C27.8667 14.2 27.4667 13.8 27.8667 13.1333C28.4 12.4667 28 10.3333 27.2 8.6C26.1333 6.33334 26.1333 4.6 27.2 2.73333C28.4 0.333336 28.1333 0.0666695 24.6667 0.200001C21.4667 0.333336 20.9333 0.866669 20.9333 4.33334Z" fill="currentColor"/>
<path d="M14.4 21C12.4 25.4 10.5334 29 10.1334 29C8.66669 29 6.66669 27.1333 3.60002 23.1333C2.00002 21 0.666687 19.6667 0.666687 19.9333C0.666687 21.6667 10.4 41.9333 12.1334 43.8C13.2 45 15.2 48.2 16.6667 51.1333C18.4 54.4667 19.2 55.1333 18.6667 53C18.1334 51.1333 16.1334 46.0667 13.8667 41.8C11.7334 37.4 10.2667 33.6667 10.5334 33.4C11.4667 32.3333 16.4 40.3333 18.2667 46.0667C20.1334 51.6667 20.2667 51.8 21.7334 48.3333C22.9334 45.9333 22.9334 44.2 21.7334 41.6667C20.6667 39.1333 20.6667 37.8 22.1334 35.4C23.8667 32.6 24 31.2667 23.4667 27.1333C23.4667 26.4667 21.8667 27.5333 20 29.5333C17.2 32.4667 16.1334 32.8667 14.6667 31.6667C13.0667 30.3333 13.2 28.8667 16 21.5333C20 10.7333 18.9334 10.3333 14.4 21Z" fill="currentColor"/>
</svg>
