<svg width="27" height="66" viewBox="0 0 27 66" fill="none" xmlns="http://www.w3.org/2000/svg">
<path d="M9.66667 1.13333C8.6 1.53333 6.86667 2.19999 5.8 2.46666C4.33333 2.99999 4.6 3.53333 6.73333 5.13333C9 6.73333 9.66667 8.73333 9.93333 15.4C10.3333 23.4 10.4667 23.6667 14.0667 24.0667L17.8 24.4667L17.4 16.6C17.1333 10.2 17.5333 7.93333 19.5333 5.79999C21 4.19999 21.8 2.73333 21.5333 2.46666C20.4667 1.39999 11.6667 0.466661 9.66667 1.13333Z" fill="currentColor"/>
<path d="M0.466664 30.6C0.466664 35.8 0.73333 36.4667 1.66666 33.9333C3.13333 30.6 5.93333 30.0667 8.2 32.8667C10.0667 35 11.1333 61.4 9.53333 62.4667C6.86666 64.0667 8.6 65.2667 13.6667 65.2667C18.4667 65.2667 18.7333 65.1333 17.4 62.6C16.6 61 16.3333 55.8 16.6 50.0667C17 44.7333 16.8667 39.9333 16.2 39.6667C14.7333 38.7333 18.8667 31 21 31C21.9333 31 23.6667 32.3333 24.7333 33.9333C26.7333 36.8667 26.8667 36.8667 26.8667 30.6C27 24.7333 26.8667 24.3333 24.8667 26.2C23.8 27.4 21.6667 28.3333 20.2 28.3333C18.8667 28.3333 17.6667 29.2667 17.6667 30.3333C17.6667 31.4 17.1333 32.3333 16.3333 32.3333C15.6667 32.3333 15.1333 31 15.4 29.2667C15.8 25.1333 12.0667 25.4 10.8667 29.6667C9.93333 33 9.93333 33 9 30.0667C8.46666 28.4667 7.26666 27.5333 6.33333 27.8C5.4 28.2 3.66666 27.5333 2.46666 26.3333C0.466663 24.3333 0.33333 24.6 0.466664 30.6Z" fill="currentColor"/>
</svg>
