<svg width="46" height="65" viewBox="0 0 46 65" fill="none" xmlns="http://www.w3.org/2000/svg">
<path d="M2.8 6.00001C4.26666 9.06668 6 11.0667 6.8 10.6667C11.3333 7.73335 13.0667 36.8 8.4 40.2667C6.93333 41.4667 6.66666 42.9333 7.2 45.6C8.4 50.5333 13.6 59.3333 17.2 62.5333C20 65.0667 20 65.0667 20 62.5333C20 61.2 18.8 58.1333 17.3333 56C13.7333 50.4 14 46 18.6667 39.2C21.0667 35.4667 22.1333 32.9333 21.3333 32.1333C20.5333 31.3333 20 27.4667 20 23.3333C20 16.6667 19.3333 14.9333 14.5333 8.26668C9.86666 1.60001 8.66666 0.66668 4.66666 0.66668H0.266663L2.8 6.00001Z" fill="currentColor"/>
<path d="M31.6 8.40002C26.6667 14.9333 25.8667 16.8 25.3333 24.9333C24.6667 32.8 25.0667 34.8 27.6 39.0667C31.0667 44.6667 31.6 52.2667 28.6667 56.1334C27.6 57.4667 26.6667 60.1334 26.6667 62C26.6667 65.0667 26.8 65.0667 30.6667 60.6667C36.1333 54.1334 41.4667 43.0667 39.8667 41.2C39.0667 40.1334 39.4667 37.2 41.3333 32.8C42.8 29.0667 43.4667 26 42.9333 26C41.3333 26 37.3333 34 37.3333 37.0667C37.3333 39.4667 37.0667 39.6 36 38C35.3333 36.9334 34.6667 31.6 34.6667 26.2667C34.6667 17.3333 34.5333 16.6667 32.5333 18.5333C28.5333 22.6667 29.0667 20.5333 33.4667 15.4667C36 12.5333 38.6667 10.4 39.4667 10.6667C40.6667 11.0667 45.3333 3.60002 45.3333 1.33335C45.3333 1.06668 43.4667 0.933348 41.2 0.933348C37.8667 1.06668 36.1333 2.40002 31.6 8.40002Z" fill="currentColor"/>
</svg>
