<svg width="34" height="36" viewBox="0 0 34 36" fill="none" xmlns="http://www.w3.org/2000/svg">
<path d="M8.46668 11.4667C6.46668 17.4667 3.66668 23.4667 2.33335 24.9333C0.200017 27.2 0.200017 27.7333 2.06668 32C4.06668 36.4 4.20002 36.4 5.53335 33.6C6.33335 32 8.20002 27.3333 9.53335 23.3333C10.8667 19.3333 12.4667 15.6 12.8667 15.0667C13.2667 14.5333 15.6667 19.2 18.2 25.4667C20.7334 31.6 23.1334 36.2667 23.6667 35.7333C24.0667 35.2 26.2 30.1333 28.3334 24.6667C30.3334 19.2 32.4667 14.1333 33 13.6C33.5334 12.9333 33.4 10.4 32.6 7.86666C31.4 3.86666 31.1334 3.59999 29.5334 5.73333C28.6 6.93333 27.6667 9.46666 27.6667 11.3333C27.5334 13.2 26.4667 17.0667 25.1334 19.8667L22.8667 25.0667L17.8 12.9333C15 6.13333 12.4667 0.66666 12.3334 0.66666C12.2 0.66666 10.4667 5.59999 8.46668 11.4667Z" fill="currentColor"/>
</svg>
