<svg width="56" height="66" viewBox="0 0 56 66" fill="none" xmlns="http://www.w3.org/2000/svg">
<path d="M0.80002 8.60001L0.666687 18.3333H28H55.3334V9.26668L55.2 0.333343L53.0667 4.33334C48 14.0667 47.3334 14.3333 28 14.3333C10.6667 14.3333 10.5334 14.3333 7.06669 10.6C5.20002 8.60001 3.06669 5.13334 2.26669 3.00001C1.06669 -0.466657 0.80002 0.200009 0.80002 8.60001Z" fill="currentColor"/>
<path d="M26.1333 4.2C25.2 6.33334 24.8 8.86667 25.2 9.93334C25.6 10.8667 25.2 11.6667 24.4 11.6667C23.6 11.6667 23.2 12.0667 23.6 12.4667C24.1333 12.8667 25.7333 12.6 27.2 11.6667C29.3333 10.6 30 10.6 30 11.8C30 12.7333 30.2667 13.1333 30.6667 12.7333C31.0667 12.4667 30.5333 9.53334 29.4667 6.2L27.7333 0.333336L26.1333 4.2Z" fill="currentColor"/>
<path d="M9.6 20.6C8 22.0667 8.53334 23.5333 11.4667 25.1333C15.6 27.2667 18.1333 24.4667 14.5333 21.6667C11.6 19.5333 10.8 19.2667 9.6 20.6Z" fill="currentColor"/>
<path d="M24.6667 22.6C24.6667 24.2 26 26.8667 27.6 28.6L30.4 31.6667L27.6 34.7334C25.2 37.4 24.6667 39.4 24.8 47.1334C24.8 52.2 25.6 58.3334 26.5334 60.8667L28.1334 65.4L29.7334 58.4667C30.6667 54.6 31.3334 45.1334 31.3334 37.4C31.3334 25 31.0667 23.5334 29.3334 25C28.1334 25.9334 26.9334 26.3334 26.5334 25.9334C26.1334 25.5334 27.0667 24.6 28.5334 23.6667C32.2667 21.6667 32 19.6667 28 19.6667C25.4667 19.6667 24.6667 20.3334 24.6667 22.6Z" fill="currentColor"/>
<path d="M40.8 21.5333C40 22.4667 39.7333 24.3333 40.1333 25.5333C40.9333 27.6667 41.2 27.6667 44.5333 25.5333C48 23.2667 48 23.2667 45.7333 25.9333C44.2667 27.4 43.3333 30.7333 43.3333 33.6667C43.3333 37.6667 42.4 39.5333 38.6667 43.1333C35.6 45.9333 34 48.7333 34 51V54.4667L38.1333 52.0667C47.4667 46.6 52.5333 32.4667 48.1333 23.9333C45.7333 19.4 43.2 18.6 40.8 21.5333Z" fill="currentColor"/>
<path d="M6.53335 26.8667C3.60002 34.4667 9.73335 48.0667 18 52.3333C22 54.3333 22 54.3333 21.7334 50.7333C21.4667 48.4667 19.6 45.5333 17.0667 43.2667C13.6 40.2 12.6667 38.3333 12.6667 34.4667C12.6667 28.4667 8.13336 22.8667 6.53335 26.8667Z" fill="currentColor"/>
<path d="M23.3333 32.3333C23.3333 34.6 24 35.6667 25.0667 35.2667C25.8667 35 26.6667 33.6667 26.6667 32.3333C26.6667 31 25.8667 29.6667 25.0667 29.2667C24 29 23.3333 30.0667 23.3333 32.3333Z" fill="currentColor"/>
</svg>
