<svg width="39" height="42" viewBox="0 0 39 42" fill="none" xmlns="http://www.w3.org/2000/svg">
<path d="M11.9333 3.66666C9.00001 6.06667 7.66667 6.46666 6.60001 5.4C5.40001 4.2 5.00001 4.46666 5.00001 6.73333C5.00001 8.46666 3.80001 12.2 2.20001 15.1333C-1.39999 22.2 -0.199994 25.1333 3.66667 18.6C5.26667 15.9333 7.13334 13.6667 7.80001 13.6667C8.46667 13.6667 9.00001 13.8 9.00001 13.9333C9.00001 14.2 10.4667 18.7333 12.3333 24.0667C14.2 29.5333 15.6667 35.6667 15.6667 37.9333C15.6667 40.0667 16.2 41.6667 16.8667 41.4C18.6 40.7333 27.5333 29.8 29.8 25.4C32.0667 21 32.6 20.8667 35.9333 23.9333C38.2 25.9333 38.3333 25.9333 38.3333 23.8C38.3333 22.6 36.8667 20.8667 35 20.0667C33.1333 19.2667 31.6667 18.0667 31.6667 17.4C31.6667 16.7333 32.3333 16.6 33 17C37 19.5333 29.1333 7 24.2 3.13333C19.5333 -0.466667 16.7333 -0.466667 11.9333 3.66666ZM23.5333 9.13333C27.2667 12.3333 29.1333 16.3333 26.7333 16.3333C23.4 16.2 19.6667 14.4667 19.6667 12.8667C19.6667 11.9333 19.1333 10.7333 18.3333 10.3333C17.5333 9.8 17 11.4 17 14.2C17 18.6 17.2667 19 20.8667 19C26.6 19 27 21 22.8667 28.0667L19.1333 34.3333L16.8667 27C15.6667 23 13.6667 17.5333 12.6 15C10.7333 10.7333 10.7333 10.0667 12.6 7.93333C15.5333 4.73333 18.7333 5.13333 23.5333 9.13333Z" fill="currentColor"/>
</svg>
