<svg width="33" height="56" viewBox="0 0 33 56" fill="none" xmlns="http://www.w3.org/2000/svg">
<path d="M2.73334 3.2C5.40001 6.66666 5.66668 8.53333 5.66668 22.9333C5.66668 38.9333 6.73334 44 10.3333 44C12.3333 44 13 42.4 11.5333 40.9333C10.2 39.6 9.66668 11.7333 10.8667 7.06666C12.0667 3.06666 10.6 0.533331 9.26668 4.26666C8.86668 5.6 8.06668 5.46666 6.20001 3.86666C1.40001 -0.266669 -0.199991 -0.533336 2.73334 3.2Z" fill="currentColor"/>
<path d="M22.8667 4.4C16.4667 8.66667 15 13.6 18.7333 18.4C20.3333 20.4 22.6 23.3333 23.8 24.8C31.1333 35.2 23.1333 52.9333 10.7333 53.4667C8.06667 53.6 8.06667 53.7333 11.4 54.6667C15.9333 56 21 54.4 25.4 50.2667C35 41.3333 34.4667 27.2 24.3333 18.2667C18.7333 13.2 20.2 9.6 30.4667 3.06666C32.8667 1.6 32.8667 1.46666 30.2 1.46666C28.6 1.33333 25.4 2.66666 22.8667 4.4Z" fill="currentColor"/>
<path d="M13.9333 8.26666C11.4 10.8 12.0667 19.3333 15.1333 25.3333C20.8667 36.2667 15.4 48 4.86666 48C2.06666 48 0.466663 48.5333 0.999996 49.3333C2.2 51.3333 9.26666 50.9333 13.6667 48.6667C21.2667 44.6667 24.8667 30.6667 19.9333 23.7333C18.7333 22 16.7333 19.3333 15.5333 17.7333C13.6667 15.0667 13.6667 14.4 15.4 10.6667C17.5333 6.53332 16.7333 5.46666 13.9333 8.26666Z" fill="currentColor"/>
</svg>
