<svg width="51" height="67" viewBox="0 0 51 67" fill="none" xmlns="http://www.w3.org/2000/svg">
<path d="M21.9333 9.39998C17.8 21.1333 16.6 26.8667 17.6667 31C18.4667 34.0667 18.7333 33.8 21.4 27.8C23 24.2 24.3333 20.4667 24.3333 19.5333C24.3333 18.4667 24.8667 17.6667 25.4 17.6667C26.6 17.6667 33.6667 34.6 33.6667 37.4C33.6667 39.9333 36.0667 39.2667 37 36.3333C37.8 33.6667 27.5333 0.333315 25.8 0.333315C25.4 0.333315 23.5333 4.46665 21.9333 9.39998ZM27.6667 9.53332C28.0667 10.2 27.8 11.1333 27.1333 11.5333C26.4667 12.0667 25.5333 11.5333 25.1333 10.7333C24.7333 9.79998 24.6 10.7333 25 13C25.2667 15.1333 25.2667 16.2 24.8667 15.2667C24.4667 14.4667 23.6667 13.9333 23.1333 14.3333C22.4667 14.6 22.3333 13.4 22.7333 11.6667C23.2667 8.33332 26.0667 7.13332 27.6667 9.53332Z" fill="currentColor"/>
<path d="M24.3333 29.5333C23.5333 31.6667 23 34.6 23.2667 35.9333C23.9333 39.2667 28.8667 39.1333 29.2667 35.6667C29.4 33.5333 29.4 33.5333 28.8667 35.2667C27.6667 39.1333 25.6667 37.9333 25.6667 33.5333C25.6667 30.0667 25.9333 29.6667 27.5333 30.8667C29.1333 32.2 29.2667 31.9333 28.7333 29.6667C27.6667 25.4 26.0667 25.4 24.3333 29.5333Z" fill="currentColor"/>
<path d="M13.6667 32.7333C13.6667 34.0667 15.1333 37.4 17 40.0667C18.8667 42.7333 20.3333 45.9333 20.3333 47C20.3333 49 25 62.8667 26.0667 63.8C26.3333 64.0667 26.2 60.6 25.9333 55.9333C25.2667 47.4 22.7333 41.1333 17 34.3333C14.3333 31.1333 13.6667 30.8667 13.6667 32.7333Z" fill="currentColor"/>
<path d="M10.8667 45.9333C8.46668 54.2 5.93334 55 2.73334 48.3333C0.60001 44.0667 0.333344 43.9333 0.333344 47C0.333344 51.1333 5.80001 63 8.86668 65.5333C11 67.4 11.1333 67.1333 10.3333 62.6C9.53334 58.8667 10.0667 56.3333 12.3333 52.0667C13.9333 48.8667 15.9333 45.9333 16.8667 45.4C17.8 44.7333 17.5333 43.5333 15.6667 41.6667L12.8667 39L10.8667 45.9333Z" fill="currentColor"/>
<path d="M36.7334 40.4667C35.8 41.4 32.7334 42.0667 29.8 41.9333C25.5334 41.6667 24.6 42.0667 25.1334 43.6667C26.0667 46.0667 32.3334 46.3333 32.3334 44.0667C32.3334 42.8667 32.7334 42.8667 33.9334 44.0667C35.6667 45.8 40.3334 46.3333 40.2 44.6C40.2 44.0667 39.6667 42.6 39.2667 41.2667C38.4667 39.4 37.9334 39.2667 36.7334 40.4667Z" fill="currentColor"/>
<path d="M49.8 48.4667C49.8 49.6667 48.7333 51.5333 47.5333 52.4667C45.5333 54.0667 45 53.9333 43.2667 51.2667C42.2 49.6667 40.2 48.3333 38.8667 48.3333C36.7333 48.3333 36.6 48.7333 37.8 51.5333C38.8667 53.6667 40.0667 54.6 41.5333 54.0667C42.8667 53.6667 43.1333 53.8 42.2 54.6C40.6 55.6667 39 67 40.3333 67C43.6667 67 51.4 53.5333 50.6 49.2667C50.3333 47.5333 49.9333 47.2667 49.8 48.4667Z" fill="currentColor"/>
</svg>
