<svg width="37" height="42" viewBox="0 0 37 42" fill="none" xmlns="http://www.w3.org/2000/svg">
<path d="M4.66667 2C3.06667 3.06667 2.93333 3.73333 4.4 5.6C8.8 11.8667 9.2 13.8667 6.66667 16.6667C4.26667 19.3333 4.26667 19.3333 6.8 18.9333C8.13333 18.8 10.2667 18 11.3333 17.3333C13.0667 16.2667 13.0667 16.4 11.4667 18.4C10.5333 19.6 9.2 20.4 8.66667 20C7.33333 19.2 4.8 22.4 3.2 26.9333C2.13333 30.2667 2 30.2667 2.53333 27.3333C2.8 25.4667 3.06667 23.3333 3.33333 22.6667C3.46667 21.8667 3.46667 19.8667 3.33333 18L3.06667 14.6667L2 18C0.133334 23.6 0.533334 33.8667 2.66667 38C5.46667 43.4667 6.13333 43.0667 5.2 36.2667C4.13333 28.4 6.26667 24 12.8 20.6667C19.3333 17.3333 22.8 17.8667 27.8667 22.9333C31.3333 26.2667 31.6 27.3333 31.0667 34.2667C30.8 38.5333 30.6667 42 30.9333 42C31.2 42 32.6667 39.3333 34.1333 36.1333C36.2667 31.3333 36.5333 29.0667 35.4667 24.8C34.8 21.7333 34.6667 19.3333 35.0667 19.3333C35.4667 19.3333 34.1333 17.6 32.1333 15.4667C28.5333 11.7333 28.5333 11.3333 30.5333 8.53333C31.7333 6.8 32.6667 4.4 32.6667 3.06667C32.6667 -1.2 29.3333 0.666664 26.6667 6.4C24.2667 11.3333 23.4667 12 18.9333 12.4C12.9333 12.9333 9.2 10.2667 7.6 4.53333C6.93333 1.6 6.26667 1.06667 4.66667 2Z" fill="currentColor"/>
</svg>
