<svg width="59" height="63" viewBox="0 0 59 63" fill="none" xmlns="http://www.w3.org/2000/svg">
<path d="M5.93332 2.60001C5.93332 3.53335 4.46665 9.66668 2.59998 16.0667C0.86665 22.4667 -0.200017 27.5333 0.333317 27.4C1.66665 26.8667 13.5333 12.8667 15.1333 9.93335C16.6 7.26668 15 6.86668 12.3333 9.26668C11.2666 10.2 11.9333 9.13335 14.0667 6.86668C16.0667 4.73335 17.6667 2.46668 17.6667 1.93335C17.6667 0.200015 6.06665 0.866682 5.93332 2.60001Z" fill="currentColor"/>
<path d="M44.4667 5.79998C47.6667 9.26665 48.2 10.2 46.0667 9.13332C41.1333 6.59998 41.4 7.39998 49.8 17.8C54.3333 23.2667 58.2 27.6667 58.3333 27.4C58.6 27.1333 57.2667 21.1333 55.2667 13.9333L51.9333 0.999984H45.8H39.8L44.4667 5.79998Z" fill="currentColor"/>
<path d="M13.8 15.8C10.8667 19.6667 10.8667 20.0667 13 25.2667C14.4667 29.1333 14.7333 31.1333 13.6667 32.3333C12.4667 33.6667 12.7333 33.9333 14.6 33.5333C16.6 33 18.0667 35.5333 23 47.5333C26.3333 55.6667 29.2667 62.3333 29.6667 62.3333C30.0667 62.3333 32.7333 56.6 35.5333 49.6667C38.4667 42.6 41.9333 35.9333 43.2667 34.7333C44.6 33.6667 45.2667 32.0667 44.8667 31.4C44.3333 30.7333 45 27.8 46.3333 25C48.6 20.0667 48.6 19.8 45.5333 15.8C42.8667 12.2 42.3333 11.9333 41.2667 13.8C40.3333 15.4 40.6 16.4667 41.9333 17.5333C43.6667 18.8667 43.5333 19.8 40.8667 25.6667C37.5333 33.1333 36.6 33.2667 39.6667 25.9333C42.0667 20.2 42.2 17.9333 40.2 18.6C39.4 18.8667 37 23.2667 34.7333 28.3333C32.4667 33.5333 30.3333 38.0667 29.8 38.7333C29.2667 39.2667 26.2 33.4 23 25.6667C19.8 17.9333 17.1333 11.6667 17 11.6667C16.8667 11.6667 15.5333 13.5333 13.8 15.8ZM24.8667 37.5333C27 41.1333 27.9333 43.6667 27.1333 43.1333C25.6667 42.2 20.3333 32.6 20.3333 30.8667C20.3333 29.5333 20.6 29.9333 24.8667 37.5333ZM36.0667 36.6C35.1333 38.7333 33.2667 41.6667 31.9333 43.2667C30.4667 44.8667 29.6667 47.1333 30.0667 48.2C30.6 49.4 30.3333 50.3333 29.6667 50.3333C27.2667 50.3333 28.3333 46.6 32.4667 39.8C37.2667 32.2 38.3333 31.1333 36.0667 36.6Z" fill="currentColor"/>
</svg>
