<svg width="32" height="51" viewBox="0 0 32 51" fill="none" xmlns="http://www.w3.org/2000/svg">
<path d="M1.66666 1.80003C0.333329 5.40003 1.4 7.26669 9.66666 14.6C13.9333 18.6 17.6667 22.7334 17.8 23.9334C17.9333 25 19 26.8667 20.0667 28.0667C21.1333 29.4 23 32.4667 24.0667 35C25.1333 37.5334 27 40.8667 28.2 42.3334C30.2 44.8667 30.2 44.7334 30.3333 38.8667C30.3333 33.6667 29.8 32.3334 27 30.4667C25.1333 29.2667 23.6667 27.5334 23.6667 26.7334C23.6667 25.9334 25 26.4667 26.7333 28.0667C30.8667 31.9334 31.9333 31.8 30.2 27.4C29.5333 25.5334 29.2667 23 29.6667 21.9334C30.0667 20.8667 29.6667 19 28.7333 17.9334C27.2667 16.2 27.4 15.9334 29.4 16.7334C31.5333 17.5334 31.6667 17 31 10.7334C30.6 7.00002 29.6667 2.86669 29 1.80003C28.0667 0.0666924 27.6667 0.333359 26.4667 3.40003C25.6667 5.53336 25 7.53336 25 8.06669C25 8.60003 23.1333 11 21 13.4C17.1333 17.6667 16.8667 17.6667 13.5333 15.5334C11.6667 14.2 8.46666 10.2 6.33333 6.46669C3.53333 1.66669 2.2 0.333359 1.66666 1.80003ZM25 20.3334C25 24.8667 24.0667 25.4 21.5333 22.0667C20.3333 20.3334 20.3333 19.1334 21.2667 18.0667C23.5333 15.2667 25 16.0667 25 20.3334Z" fill="currentColor"/>
<path d="M1.39999 14.3333C1.53332 16.8667 2.06666 19 2.59999 19C4.46666 19 3.79999 21.9333 1.53332 23.5333C-0.0666771 24.7333 -0.20001 25.8 0.866656 28.6C1.53332 30.6 1.93332 34.3333 1.53332 36.8667C1.26666 39.5333 0.733323 43.8 0.466656 46.3333C0.0666562 49.1333 0.333323 50.7333 1.13332 50.3333C1.79999 49.8 2.33332 48.3333 2.33332 47C2.33332 45.6667 4.46666 41.6667 7.13332 38.3333C9.66666 34.8667 12.0667 31 12.3333 29.8C12.6 28.6 13.1333 26.7333 13.6667 25.5333C14.7333 22.7333 11.9333 20.8667 9.93332 22.8667C9.13332 23.6667 8.06666 24.3333 7.66666 24.3333C6.59999 24.3333 6.99999 17.9333 8.06666 16.7333C8.99999 15.8 3.93332 9.66667 2.19999 9.66667C1.66666 9.66667 1.26666 11.8 1.39999 14.3333Z" fill="currentColor"/>
</svg>
