<svg width="40" height="31" viewBox="0 0 40 31" fill="none" xmlns="http://www.w3.org/2000/svg">
<path d="M4.4 2.13337C-0.26667 4.53337 -0.533337 7.20004 3.86666 6.13337C7.33333 5.33337 15.3333 6.40004 15.3333 7.86671C15.3333 8.26671 13.4667 9.73337 11.3333 10.9334C7.06666 13.3334 1.2 23.8667 2.4 26.9334C2.8 28.2667 5.86666 29.2 10.8 29.7334C19.8667 30.6667 39.3333 29.4667 39.3333 27.8667C39.3333 24.8 33.7333 14.8 30.1333 11.3334C26.4 7.86671 26.1333 7.33337 28.2667 6.40004C29.6 6.00004 32.6667 5.46671 35.0667 5.46671C37.6 5.33337 39.2 4.80004 38.6667 4.00004C37.6 2.40004 26 2.26671 23.4667 3.86671C22.4 4.53337 20 4.40004 17.4667 3.33337C10 0.266706 8 0.133373 4.4 2.13337ZM26.9333 15.8667C26.5333 17.0667 26 18.9334 25.4667 20C25.0667 21.0667 25.3333 22.9334 26 24C27.0667 25.7334 27.6 25.6 29.6 23.4667C30.9333 22.1334 31.3333 21.3334 30.4 21.8667C28.4 22.9334 26.6667 20.1334 28.4 18.4C29.3333 17.4667 30.4 18.4 31.8667 21.2C33.7333 24.6667 33.7333 25.4667 32.2667 26.1334C28.9333 27.3334 8.26666 26 7.73333 24.5334C7.46666 23.6 8.8 23.3334 11.4667 23.7334C15.0667 24.2667 15.6 24 14.9333 22.1334C14.4 20.9334 13.7333 19.2 13.3333 18.2667C12.5333 16.2667 13.7333 14.5334 17.8667 11.7334C20.8 9.73337 21.3333 9.73337 24.2667 11.6C26.1333 12.9334 27.3333 14.6667 26.9333 15.8667Z" fill="currentColor"/>
</svg>
