<svg width="30" height="41" viewBox="0 0 30 41" fill="none" xmlns="http://www.w3.org/2000/svg">
<path d="M1.80001 3.66665C2.73335 5.53332 3.66668 12.3333 3.80001 19C3.93335 26.3333 4.86668 32.8667 6.20001 35.6667C8.60001 41.1333 8.86668 39.9333 8.33335 26.4667L8.06668 16.4667L17.6667 27.8C29.5333 41.6667 30.3333 42.4667 29 39C27.8 35.6667 27.4 31.6667 26.8667 15.2667C26.4667 2.73332 26.3333 2.19999 24.2 4.86665C22.4667 6.99998 22.0667 9.39999 22.6 16.3333C23 21.1333 22.8667 25 22.2 25C21.5333 25 17.5333 20.8667 13.4 15.9333C9.26668 11 4.60001 5.53332 3.00001 3.66665L0.200012 0.333321L1.80001 3.66665Z" fill="currentColor"/>
</svg>
