<svg width="36" height="69" viewBox="0 0 36 69" fill="none" xmlns="http://www.w3.org/2000/svg">
<path d="M11.9334 4.53332C9.40004 8.79999 8.86671 14.6667 11 16C11.8 16.4 12.3334 15.6 12.3334 14.1333C12.3334 10.4 15.1334 9.06665 17.1334 11.8667C18.2 13.3333 19 13.6 19.6667 12.8C20.0667 12 21.4 11.3333 22.4667 11.3333C26.3334 11.3333 24.0667 15.7333 16.7334 22.8C10.7334 28.4 8.06671 30 4.73337 30C1.80004 30 0.333374 30.6667 0.333374 31.8667C0.333374 35.2 8.20004 51.4667 12.8667 57.8667C15.4 61.2 17.6667 65.2 18.0667 66.6667C18.6 69.0667 18.7334 68.9333 18.8667 66.2667C18.8667 64.5333 21.1334 60.4 23.5334 57.2C29.2667 49.6 33.5334 41.0667 34.6 34.8L35.4 30H29.6667C26.2 30 22.8667 30.9333 21.5334 32.1333C19.6667 33.8667 18.6 33.8667 16.3334 32.6667L13.4 31.0667L17.2667 26.9333C24.3334 19.3333 27 15.0667 27 11.4667C27 7.46665 23.6667 1.99999 21.2667 2.13332C20.0667 2.13332 20.0667 2.39999 21.4 2.93332C23.6667 3.86665 23.4 8.66665 21 8.66665C19.9334 8.66665 19 7.86665 19 6.93332C19 5.86665 18.6 5.86665 17.8 7.19999C17.1334 8.26665 15.6667 8.66665 14.3334 8.13332C12.2 7.33332 12.2 7.06665 14.2 3.99999C15.4 2.13332 15.9334 0.666653 15.2667 0.666653C14.7334 0.666653 13.2667 2.39999 11.9334 4.53332ZM16.0667 39.3333C17.4 51.8667 18.0667 54.6667 19.1334 52C19.6667 50.5333 20.2 46.8 20.2 43.8667C20.3334 37.3333 23.1334 34 26.3334 36.6667C27.4 37.6 28.3334 39.3333 28.3334 40.5333C28.3334 43.7333 22.4667 55.7333 19.8 57.8667C17.9334 59.4667 17.2667 59.3333 15.5334 57.2C10.0667 50.1333 7.66671 42 9.93337 37.6C11.6667 34.2667 15.5334 35.3333 16.0667 39.3333Z" fill="currentColor"/>
</svg>
