<svg width="48" height="59" viewBox="0 0 48 59" fill="none" xmlns="http://www.w3.org/2000/svg">
<path d="M7.46667 1.00001C7.33334 1.66668 10 5.93334 13.3333 10.3333C16.6667 14.7333 19.3333 18.4667 19.3333 18.7333C19.3333 19 17.2 17.4 14.6667 15.1333C12 12.8667 9.33334 11 8.66667 11C8.00001 11 5.86667 9.40001 4.00001 7.40001C2.13334 5.40001 0.666672 4.20001 0.666672 4.73334C0.666672 7.53334 3.86667 11 9.33334 14.2C13.4667 16.6 15.6 18.8667 16.1333 21.4C16.5333 23.4 17.7333 27 18.8 29.4C21.2 35 21.2 36.3333 18.6667 33.1333C16.8 30.7333 16.6667 30.8667 16.6667 36.4667C16.6667 39.8 17.6 43.8 18.9333 45.5333C20.1333 47.4 20.4 48.3333 19.4667 47.8C17.7333 46.7333 6.40001 57.1333 7.73334 58.4667C8.13334 58.8667 11.8667 57.6667 16 55.6667L23.6 52.2L23.0667 45.6667C22.8 40.3333 23.0667 39 24.6667 39C26.2667 39 26.8 40.6 26.9333 45.6667C26.9333 49.4 27.3333 52.7333 27.7333 53.1333C29.2 54.6 42 58.8667 42 57.9333C42 56.0667 34.5333 49.5333 33.6 50.6C33.0667 51 32.6667 46.7333 32.6667 41.1333C32.6667 32.2 32.4 30.8667 30.5333 31.5333C29.4667 31.9333 28.9333 31.8 29.3333 31.1333C29.7333 30.4667 29.3333 29.4 28.5333 28.8667C27.3333 28.2 27.2 29.2667 27.7333 33.1333C28.2667 36.2 28.1333 37.5333 27.4667 36.4667C26.5333 35 26.1333 35 25.4667 36.4667C25.0667 37.5333 24.9333 36.4667 25.4667 34.3333C26.1333 30.4667 26.1333 30.4667 24 33C21.8667 35.6667 21.8667 35.5333 22.8 32.3333C23.2 30.4667 23.6 28.7333 23.6 28.3333C23.7333 17.5333 23.3333 16.7333 15.3333 8.20001C11.0667 3.53334 7.46667 0.20001 7.46667 1.00001Z" fill="currentColor"/>
<path d="M32.2667 9.93333C28.1333 14.6 25.3333 18.4667 26 18.7333C26.5333 19 26.5333 20.8667 26 23.1333C24.8 27 24.9333 27.1333 30.4 27.5333C31.2 27.6667 32.2667 25.6667 32.6667 23C33.2 19.5333 34.5333 17.6667 38 15.5333C43.8667 11.8 48.9333 6.86667 47.8667 5.8C47.4667 5.4 46.4 6.06667 45.4667 7.4C44.5333 8.6 43.0667 9.66667 42.2667 9.66667C41.4667 9.66667 38.6667 11.5333 36 13.8C30 19.1333 30 17.6667 36 10.6C40 5.93333 42 1.66667 40.1333 1.66667C39.8667 1.66667 36.2667 5.4 32.2667 9.93333Z" fill="currentColor"/>
<path d="M22.1333 7.93332C20.8 10.8667 20.9333 11.8 22.5333 13.5333C24.5333 15.4 24.9333 15.4 26.9333 13.2667C28.9333 11.4 28.9333 10.6 27.3333 7.66666C25.0667 3.39999 24.1333 3.53332 22.1333 7.93332Z" fill="currentColor"/>
</svg>
