<svg width="38" height="49" viewBox="0 0 38 49" fill="none" xmlns="http://www.w3.org/2000/svg">
<path d="M8.73333 3.73332C6.73333 5.46665 3.93333 7.19999 2.73333 7.73332C1.39999 8.13332 0.333328 9.86665 0.333328 11.3333C0.333328 12.9333 0.999995 13.7333 1.66666 13.3333C2.46666 12.8 2.99999 14.6667 2.99999 17.8667C2.99999 22 3.93333 24.4 7.13333 28C9.4 30.5333 12.4667 32.6667 13.9333 32.6667C15.8 32.6667 16.3333 33.3333 15.8 34.6667C15.4 35.7333 15.6667 38 16.3333 39.7333C17 41.3333 17.9333 44.4 18.3333 46.6667C19.2667 50.4 19.4 50 21.5333 42.2667C23.1333 35.8667 24.6 33.0667 27.9333 30.5333C32.8667 26.8 35.5333 19.8667 34.2 14.6667C33.5333 12 33.6667 11.2 34.8667 11.8667C36.8667 13.2 38.4667 8.93332 36.4667 6.93332C35.4 5.86665 35 5.86665 35 7.06665C35 8.26665 31.6667 8.66665 23.5333 8.53332C16.7333 8.39999 11.5333 8.93332 10.6 9.86665C9.53333 10.9333 11.9333 11.3333 19.4 11.3333C27.5333 11.3333 29.9333 11.7333 30.6 13.4667C31.8 16.6667 28.6 25.7333 25.2667 28C22.6 29.8667 22.2 29.8667 20.8667 28C19.5333 26.1333 19.2667 26.1333 18.4667 28C17.4 30.9333 15.2667 30.4 10.8667 26.1333C6.46666 21.6 5.8 16.1333 9 9.99998C11.9333 4.39999 16.7333 3.46665 28.3333 6.66665L31.6667 7.59999L27.9333 4.13332C22.8667 -0.533348 14.2 -0.666679 8.73333 3.73332Z" fill="currentColor"/>
</svg>
