<svg width="39" height="39" viewBox="0 0 39 39" fill="none" xmlns="http://www.w3.org/2000/svg">
<path d="M5.33332 7.79998C7.86665 11.9333 10.6667 17.5333 11.4667 20.2C12.4 22.8666 14.4 27.9333 16.1333 31.5333L19.2 38.0667L21.3333 32.8667C22.6667 30.0667 25.3333 23.5333 27.4667 18.4667C29.6 13.4 32.9333 7.26665 34.8 4.73331L38.1333 0.333317H19.4667H0.799988L5.33332 7.79998ZM24.1333 7.79998C23.7333 8.99998 23.3333 10.4666 23.3333 11.1333C23.3333 13.4 16.8 12.3333 15.3333 9.79998C13.3333 5.93332 13.6 5.66665 19.4667 5.66665C23.8667 5.66665 24.8 6.06665 24.1333 7.79998Z" fill="currentColor"/>
</svg>
