<svg width="48" height="65" viewBox="0 0 48 65" fill="none" xmlns="http://www.w3.org/2000/svg">
<path d="M21.8 7.59999C20.3333 13.8667 20.4667 15.3333 22.0667 16.9333C23.6667 18.5333 24.0667 18.5333 25.5333 16.8C27.2667 14.6667 26.4667 1.99999 24.4667 0.799989C23.9333 0.399989 22.7333 3.46666 21.8 7.59999Z" fill="currentColor"/>
<path d="M4.06668 10.4C0.333343 18.2667 -0.333324 25.8667 2.20001 32.6667C4.86668 39.4667 12.0667 46.4 17.8 47.6C21.1333 48.2667 21.6667 48.9333 21.6667 52.5333C21.5333 54.8 22.0667 58.8 22.6 61.3333C24.6 69.3333 26.2 63.3333 26.4667 46.2667C26.7333 35.4667 27.4 29.6 28.7333 27.6C29.6667 26 31 23.0667 31.4 21.2C32.0667 18.6667 33.4 17.4667 36.4667 16.8C41.1333 15.8667 47.1333 15.8667 44.8667 16.8C43.9333 17.2 43.5333 20 43.9333 24.1333C44.2 27.7333 43.6667 32.1333 42.8667 33.7333C40.2 38.9333 34.6 44 31.4 44C29.5333 44 28.3333 44.8 28.3333 46C28.3333 49.4667 33.5333 48.1333 39 43.2C42.6 39.8667 44.8667 36.2667 46.3333 31.7333C48.4667 24.4 47.9333 19.2 44.0667 11.2L41.4 5.73333L38.4667 8.53333C36.8667 10.1333 32.7333 13.6 29.4 16.4C25 20 23.4 22.2667 23.9333 23.7333C24.4667 25.0667 24.3333 25.6 23.8 25.0667C23.2667 24.6667 22.6 23.2 22.4667 21.8667C22.2 20.5333 18.6 16.4 14.2 12.5333L6.33334 5.59999L4.06668 10.4ZM15.4 18C16.6 18.5333 17.6667 20 17.6667 21.2C17.6667 23.0667 17.4 23.0667 16.3333 21.3333C14.7333 18.6667 11.9333 21.3333 13.1333 24.5333C13.8 26.4 14.3333 26.5333 15.1333 25.0667C16.8667 22.2667 19.9333 26.4 20.7333 32.9333C21.2667 37.8667 21 38.6667 19 38.6667C16.2 38.6667 11.2667 33.0667 10.2 28.4C9.53334 26 9.00001 25.6 7.66668 26.6667C6.33334 27.7333 5.66668 27.6 4.86668 26.4C3.00001 23.6 2.73334 18.6667 4.33334 18.6667C5.13334 18.6667 5.66668 20 5.40001 21.6C5.00001 25.4667 7.13334 26.4 9.00001 23.3333C9.93334 21.6 9.93334 20.8 8.60001 20.4C7.40001 19.8667 7.26668 19.3333 8.33334 18C9.80001 16.2667 11.2667 16.1333 15.4 18Z" fill="currentColor"/>
<path d="M39.2667 20.2666C38.3333 21.2 37.6667 23.8666 37.6667 26.4C37.6667 29.8666 36.4667 32.1333 33 35.6C30.4667 38.1333 28.3333 40.5333 28.3333 40.8C28.3333 41.0666 29.6667 41.3333 31.4 41.3333C36.6 41.3333 44.4667 30.8 41.8 27.4666C40.8667 26.2666 40.8667 25.3333 42.0667 24C43.4 22.6666 43.1333 22.4 41.1333 23.2C38.6 24.1333 38.6 24 41 21.3333C43.5333 18.5333 42.0667 17.4666 39.2667 20.2666Z" fill="currentColor"/>
</svg>
