<svg width="64" height="69" viewBox="0 0 64 69" fill="none" xmlns="http://www.w3.org/2000/svg">
<path d="M28.3333 4.93333C26.8667 7.73333 25.5333 10.4 25.2667 10.9333C25 11.4667 26.4667 12.8 28.3333 14.1333C30.8667 15.7333 32.2 16 33.2667 14.9333C34.3333 13.8667 34.2 13.2 32.6 12.5333C31.1333 12 30.3333 10.2667 30.4667 7.46667C30.6 4.93333 30.8667 4.26667 31.2667 5.86667C32.2 9.33333 36.6 13.8667 37.5333 12.2667C38.3333 10.9333 33 -8.12213e-07 31.5333 -8.12213e-07C31.1333 -8.12213e-07 29.6667 2.26667 28.3333 4.93333Z" fill="currentColor"/>
<path d="M21.9334 16C21.4 17.8667 22.3334 19.8667 24.7334 22.1333C28.2 25.3333 28.3334 25.3333 29.5334 22.6667C31.1334 19.2 32.4667 19.3333 34.4667 22.8L35.9334 25.7333L39.2667 22.2667C41.6667 19.8667 42.3334 18.1333 41.6667 16.1333C40.4667 12.2667 38.8667 12.6667 37.2667 16.9333C36.4667 19.0667 35.8 19.8667 35.8 18.9333C35.6667 16.9333 27.4 16.8 25.4 18.8C24.4667 19.7333 24.2 19.2 24.6 16.8C25.4 12.6667 23 12.1333 21.9334 16Z" fill="currentColor"/>
<path d="M17.1333 28C15.5333 31.6 14.3333 35.8667 14.3333 37.4667C14.3333 39.0667 13.5333 41.4667 12.6 42.5333C11.6667 43.7333 9.80002 48.1333 8.46668 52.4C7.26668 56.5333 4.60002 61.6 2.60002 63.4667C-0.333316 66.4 -0.46665 66.8 1.66668 66.1333C7.26668 64.1333 12.6 59.4667 16.0667 53.0667C19.6667 46.5333 19.8 46.2667 17 47.0667C14.7333 47.6 14.4667 47.4667 15.8 45.8667C19 42 21.9333 43.8667 25.5333 52C27.5333 56.4 29.5333 62.1333 29.9333 64.8C30.8667 70.4 31.9333 69.4667 34.2 61.3333C35.1333 58 37.1333 52.6667 38.7333 49.6C41.4 44.2667 41.9333 43.8667 45.9333 44.2667C50.3333 44.8 50.3333 44.8 49.5333 40.1333C48.6 34.2667 46.4667 26.8 44.7333 23.4667C43.5333 21.2 43.1333 21.3333 39.5333 24.8C37.4 26.8 35.6667 29.3333 35.6667 30.5333C35.6667 31.6 36.0667 32 36.6 31.6C37 31.0667 39 31.6 40.7333 32.8C43.8 34.8 44.0667 34.8 43.2667 32.8C42.7333 31.6 41.9333 29.7333 41.4 28.4C40.8667 26.9333 41 26.5333 42.0667 27.2C44.0667 28.4 46.3333 36.9333 45.4 39.4667C44.8667 40.9333 44.0667 40.4 42.2 37.4667C39.1333 32.4 36.6 32.2667 34.4667 36.9333C32.8667 40.5333 32.7333 40.5333 30.8667 38C29.8 36.6667 29 35.0667 29 34.4C29 31.8667 24.8667 33.7333 21.8 37.6L18.3333 42V37.3333C18.3333 31.6 19.6667 26.6667 21 26.6667C21.6667 26.6667 21.5333 28.5333 20.8667 30.9333C19.5333 35.8667 19.9333 36.9333 22.3333 34C23.2667 32.9333 25.1333 32 26.4667 32C27.9333 32 29 31.6 29 31.2C29 29.3333 26.0667 25.4667 23.1333 23.6C19.9333 21.4667 19.9333 21.4667 17.1333 28ZM29.6667 45.8667L32.0667 49.4667L34.4667 45.3333C35.9333 43.0667 37 40 37 38.4C37 36 37.4 35.8667 38.6 37.0667C39.9333 38.4 39.5333 40.2667 36.3333 46C32.2 53.8667 31.1333 54.6667 29.8 50.9333C29.4 49.7333 27.9333 46.6667 26.4667 44.1333C25 41.7333 24.2 38.8 24.7333 37.6C25.2667 35.8667 25.6667 36.2667 26.4667 38.8C26.8667 40.6667 28.3333 43.8667 29.6667 45.8667Z" fill="currentColor"/>
<path d="M43.6667 46C43.6667 46.4 45.2667 49.6 47.2667 53.2C50.7334 59.4667 55.9334 64 61.6667 66.1333C63.8 66.9333 63.5334 66.2667 60.2 62.5333C57.9334 59.8667 55.4 54.9333 54.3334 51.4667C52.7334 45.4667 52.4667 45.2 51 48L49.4 50.9333L48.6 48.1333C48.0667 45.8667 43.6667 43.8667 43.6667 46Z" fill="currentColor"/>
</svg>
