<svg width="56" height="66" viewBox="0 0 56 66" fill="none" xmlns="http://www.w3.org/2000/svg">
<path d="M8.26667 1.26667C7.33333 1.80001 5.2 2.33334 3.33333 2.33334L0 2.46667L3.73333 4.46667C5.86667 5.53334 8.8 6.33334 10.4 6.33334C15.2 5.93334 16.6667 6.20001 16.6667 7.80001C16.6667 8.86667 16.1333 8.86667 14.8 7.66667C13.2 6.46667 12.1333 7.26667 8.8 12.6C6.53333 16.0667 4.66667 20.2 4.66667 21.8C4.66667 27 14.6667 48.8667 16.2667 47.1333C16.5333 46.8667 15.6 42.6 14.1333 37.6667C12.5333 32.7333 11.3333 27.2667 11.3333 25.5333C11.3333 23.8 10.8 22.3333 10 22.3333C9.33333 22.3333 8.66667 21.1333 8.66667 19.5333C8.66667 18.0667 9.2 17.1333 9.73333 17.5333C10.2667 17.8 12 17.1333 13.6 15.9333C16.4 13.6667 24.6667 2.60001 24.6667 1.13334C24.6667 -0.0666608 10 0.200006 8.26667 1.26667Z" fill="currentColor"/>
<path d="M32.6667 1.39999C32.6667 2.46666 36.8 8.59999 41.7334 14.7333C43.3334 16.8667 44.6667 18.0667 44.6667 17.6667C44.6667 17.1333 45.6 17.4 46.6667 18.3333C47.7334 19.2667 48.6667 20.6 48.6667 21.4C48.6667 22.4667 48.2667 22.4667 47.2 21.4C45.4667 19.6667 39.4667 20.7333 39.8667 22.8667C40.1334 23.6667 40 23.9333 39.7334 23.2667C38.2667 20.7333 35.3334 22.7333 34 27.2667C33.2 30.0667 32 33.5333 31.3334 35C30.8 36.4667 29.8667 38.8667 29.3334 40.3333C28.5334 42.4667 27.7334 41 25.3334 34.0667C19.7334 17.8 19.0667 19.5333 29.8667 19.8C40.2667 20.0667 42 19.5333 39.3334 16.3333C38.1334 14.8667 34.9334 14.3333 27.2 14.3333C17.6 14.3333 16.6667 14.6 16.6667 17C16.6667 18.4667 16.1334 19.6667 15.4667 19.6667C14.2667 19.6667 14.4 23.1333 15.6 26.3333C16.1334 27.4 17.2 30.6 18 33.4C18.8 36.0667 20 38.0667 20.4 37.8C20.9334 37.5333 21.4667 39.4 21.6 42.2C22.1334 48.7333 28.1334 67.5333 29.0667 65C34 50.2 35.3334 44.6 33.8667 42.8667C32.6667 41.4 32.8 41 34.2667 41C36.2667 41 39.3334 35.8 39.3334 32.4667C39.3334 31.5333 40.8 29.4 42.6667 27.6667C45.6 24.8667 46 24.8667 46.8 27C47.3334 28.2 47.2 29.6667 46.4 30.2C45.2 31 40.6667 42.0667 40.6667 44.2C40.6667 46.7333 45.2 41.2667 47.4667 36.2C48.6667 33.1333 50.4 30.2 51.2 29.8C53.8667 28.0667 52.6667 20.6 48.8 13.5333L44.8 6.59999L50.1334 5.79999C52.9334 5.39999 55.3334 4.33333 55.3334 3.66666C55.3334 2.06666 56.5334 2.33333 43.7334 1.26666C37.6 0.733327 32.6667 0.733327 32.6667 1.39999Z" fill="currentColor"/>
</svg>
