<svg width="39" height="33" viewBox="0 0 39 33" fill="none" xmlns="http://www.w3.org/2000/svg">
<path d="M14.4 1.66666C10 3.53332 6.00002 10.8667 6.00002 17C6.00002 19.9333 4.80002 24.3333 3.33335 26.7333L0.666687 31.1333L6.26669 31C9.46669 31 14.8 31.4 18.4 31.8C23.0667 32.4667 25.6 32.0667 28.1334 30.3333C32.2667 27.6667 35.7334 19.9333 34.6667 15.9333C34.1334 14.3333 33.4667 11.9333 33.2 10.6C32.6667 9.13332 33.2 8.33332 34.6667 8.33332C36.2667 8.33332 36.8 9.13332 36.2667 11C35.4667 14.0667 37.3334 14.6 38.5334 11.6667C39.7334 8.33332 37.8667 5.66666 34.2667 5.66666C32.4 5.66666 29.8667 4.73332 28.6667 3.66666C25.7334 0.99999 18.2667 -0.0666771 14.4 1.66666ZM25.2 8.46666C29.8667 12.0667 29.7334 15.6667 24.8 17.4C20.6667 18.8667 19.3334 18.3333 19.3334 15.4C19.3334 14.0667 20.1334 13.8 22 14.3333C25.3334 15.4 25.4667 13.4 22.1334 10.4667C19.7334 8.33332 19.4667 8.33332 17.4667 11.2667C14.6667 15.1333 14.8 16.7333 18 19.6667C20.1334 21.5333 21.2 21.6667 24.6667 20.6C29.3334 18.8667 29.8667 20.4667 25.8667 24.4667C22.2667 28.0667 16.9334 27.2667 13.6 22.7333C11.3334 19.6667 11.0667 18.2 12.1334 14.0667C12.9334 10.8667 14.5334 8.46666 16.6667 7.39999C21.0667 5.13332 21.0667 5.26666 25.2 8.46666Z" fill="currentColor"/>
</svg>
