<svg width="35" height="68" viewBox="0 0 35 68" fill="none" xmlns="http://www.w3.org/2000/svg">
<path d="M9.82945 8.04704C4.9089 12.4059 0.934601 16.597 0.934601 17.2676C0.934601 19.447 16.4533 37.0499 17.5888 36.2117C17.9673 35.7087 16.264 31.0146 13.4252 25.8176L8.31544 16.2617L13.6145 11.4L18.9136 6.53822L23.8341 11.9029C29.1332 17.6029 28.9439 19.6147 21.9416 27.1588C20.6168 28.6676 19.8598 30.847 20.0491 31.6852C20.8061 33.5293 35 17.7705 35 15.4235C35 14.7529 31.4042 10.897 26.8622 7.04116L18.7243 3.53935e-06L9.82945 8.04704Z" fill="currentColor"/>
<path d="M17.3995 17.9382C15.507 19.447 15.8855 26.4882 17.778 27.494C20.9953 29.3381 24.0234 23.9735 21.7523 20.2852C19.4813 16.4294 19.1028 16.2617 17.3995 17.9382Z" fill="currentColor"/>
<path d="M18.5351 38.894C12.2897 45.2646 11.722 46.9411 15.3178 50.4616C18.1566 53.3116 18.3458 54.4852 16.4533 56.9999C13.4253 61.3587 13.6145 64.544 17.021 67.0587C19.2921 68.7351 19.4813 68.0645 18.5351 63.0351C17.7781 59.0116 18.1566 56.9999 19.6706 56.9999C22.6986 56.9999 22.3201 53.4793 18.5351 49.9587C16.8318 48.2822 15.8855 46.6058 16.4533 46.1028C16.8318 45.5999 19.2921 47.6116 21.5631 50.4616C25.5374 55.1557 25.5374 55.8263 22.8879 58.5087C21.1846 60.1851 19.8598 62.0293 19.8598 62.8675C19.8598 63.5381 21.5631 62.5322 23.6449 60.3528C28.3762 55.491 28.3762 54.4852 23.6449 48.4499C19.8598 43.9234 19.8598 43.4205 22.8879 39.397C26.6729 34.1999 23.8341 33.8646 18.5351 38.894Z" fill="currentColor"/>
</svg>
