<svg width="38" height="52" viewBox="0 0 38 52" fill="none" xmlns="http://www.w3.org/2000/svg">
<path d="M1.60001 3.99999C-0.666654 8.79999 -0.799988 8.66665 6.80001 8.66665C10.9333 8.66665 13.2 8.13332 12.6667 7.33332C12.2667 6.53332 9.86668 5.99999 7.33335 5.99999C3.60001 5.99999 3.06668 5.59999 3.60001 3.33332C4.53335 -0.400013 3.33335 -1.23978e-05 1.60001 3.99999Z" fill="currentColor"/>
<path d="M32 3.06666C32 4.79999 32.5333 5.73332 33.3333 5.33332C34.1333 4.93332 34.6667 5.19999 34.6667 5.86666C34.6667 6.66666 33.4667 7.33332 31.8667 7.33332C29.7333 7.33332 29.3333 6.79999 30 4.26666C30.8 1.46666 30.8 1.46666 28.8 3.86666C25.6 7.86666 26.1333 8.66666 32 8.66666C38 8.66666 38.4 7.99999 34.6667 3.33332L32 -1.04904e-05V3.06666Z" fill="currentColor"/>
<path d="M4.26666 29.6C4.79999 40.5333 5.73333 50.2667 6.26666 51.3333C6.8 52.4 7.6 47.0667 8 39.4667L8.66666 25.4667L18.6667 25.6L28.6667 25.7333L30.1333 39.6C31.8667 57.0667 33.2 53.0667 33.6 28.2667L34 10H30.1333C27.0667 10 26.5333 10.4 27.7333 11.6C28.6667 12.5333 29.3333 15.2 29.3333 17.6V22H18.6667H8V17.6C8 15.2 8.66666 12.5333 9.6 11.6C10.8 10.4 10.2667 10 7.33333 10H3.33333L4.26666 29.6Z" fill="currentColor"/>
</svg>
