<svg width="47" height="59" viewBox="0 0 47 59" fill="none" xmlns="http://www.w3.org/2000/svg">
<path d="M9.46669 4.86667C5.46669 11.2667 5.86669 15.1333 11.4667 20.4667C17.8667 26.6 19.8667 30.7333 20.9334 40.3333C21.7334 48.3333 24 52.8667 24 46.4667C24 36.8667 27.0667 29.1333 33.4667 22.3333C40.8 14.6 41.3334 12.0667 37.0667 5.66667C32.9334 -0.333328 30.1334 -1.26666 32.8 4.33334C34.8 8.33334 34.8 8.73334 31.3334 13.6667C24.4 23.6667 23.7334 23.8 17.4667 17C11.8667 11 10.9334 7.53334 13.3334 2.86667C15.7334 -1.53333 12.4 0.0666722 9.46669 4.86667Z" fill="currentColor"/>
<path d="M6.4 35.9333C2.8 40.6 0 45.5333 0 46.8667C0 49.9333 4.8 54.3333 10.9333 57C17.8667 59.8 17.8667 59.6667 13.3333 53.4C8.26667 46.4667 8.26667 43.5333 13.4667 37.1333C17.6 32.2 17.6 32.0667 15.2 29.6667C12.8 27.4 12.5333 27.6667 6.4 35.9333Z" fill="currentColor"/>
<path d="M30.9333 28.6C28.5333 31 28.9333 32.4667 33.3333 38.2C38.4 44.8667 38.4 47.1333 33.3333 52.7333C31.2 55.2667 29.3333 57.6667 29.3333 58.0667C29.3333 58.4667 32 57.9333 35.3333 56.7333C40.8 55 46.6667 49.8 46.6667 46.8667C46.6667 45.9333 33.4667 27 32.8 27C32.6667 27 31.8667 27.6667 30.9333 28.6Z" fill="currentColor"/>
</svg>
