<svg width="48" height="67" viewBox="0 0 48 67" fill="none" xmlns="http://www.w3.org/2000/svg">
<path d="M23.1333 4.00001C22.6 6.13334 21.9333 8.80001 21.5333 9.73334C21.2667 10.6667 19.4 12.1333 17.4 12.9333C13.8 14.5333 13.8 14.6667 20.3333 15.0667C23.9333 15.3333 27.6667 16.1333 28.6 16.9333C30.3333 18.4 37 17.3333 37 15.6C37 15.0667 34.4667 13.6 31.4 12.5333C26.2 10.6667 25.5333 9.86668 24.8667 5.20001L24.2 7.21882e-06L23.1333 4.00001Z" fill="currentColor"/>
<path d="M6.46666 20C1.93333 25.3334 -1.00001 34 0.333326 39.2C2.19999 46.9334 7.53333 53.7334 14.2 56.9334C17.9333 58.6667 21.4 61.4667 22.3333 63.3334L23.9333 66.6667L25.8 63.2C26.7333 61.2 29 59.3334 30.8667 58.8C39.2667 56.6667 47.6667 44.9334 47.6667 35.3334C47.6667 25.2 40.7333 14.4 36.3333 18C34.7333 19.3334 34.8667 20.2667 37.6667 24.4C44.0667 33.7334 40.8667 47.2 31.4 51.7334C29 52.9334 26.4667 53.4667 25.6667 52.9334C23.9333 51.7334 19.4 52.5334 17.1333 54.4C15.8 55.4667 15.4 55.4667 16.0667 54.5334C16.4667 53.7334 14.6 50.5334 11.6667 47.4667C7.53333 43.0667 6.33333 40.8 6.33333 37.2C6.33333 31.0667 9.66666 24.1334 14.4667 20.1334C18.2 16.9334 18.2 16.9334 15.2667 16.1334C10.8667 14.9334 10.8667 14.9334 6.46666 20Z" fill="currentColor"/>
<path d="M18.0667 19.4667C15.1333 21.0667 14.8667 26 17.5333 26C18.6 26 20.4667 27.2 21.5333 28.8L23.4 31.6L28.0667 28C31.2667 25.3333 32.4667 23.4667 31.9333 21.7333C31.6667 20.2667 30.6 19.4667 29.6667 19.8667C28.7333 20.1333 27.5333 20.1333 27.1333 19.6C25.5333 18.1333 20.4667 18 18.0667 19.4667Z" fill="currentColor"/>
</svg>
