<svg width="51" height="65" viewBox="0 0 51 65" fill="none" xmlns="http://www.w3.org/2000/svg">
<path d="M9.6667 1.19999C9.6667 1.86666 12.3334 7.06666 15.6667 12.8C22.2 24.4 23.2667 27.8667 18.4667 22.4C16.7334 20.4 14.8667 19.2 14.4667 19.6C14.0667 20.1333 13.6667 18.9333 13.6667 17.2C13.6667 12.6667 12.2 7.99999 11 7.99999C10.3334 7.99999 9.40004 9.33332 8.8667 10.9333C8.4667 12.6667 6.33337 17.4667 4.20004 21.8667C-0.46663 31.3333 -0.733297 33.6 3.40004 33.0667C6.8667 32.5333 11.8 24 9.53337 22.5333C7.2667 21.2 13 20.2667 15.5334 21.6C16.7334 22.2667 17.6667 24 17.6667 25.3333C17.6667 27.6 18.7334 27.8667 25.6667 27.8667C33.6667 27.7333 33.6667 27.7333 33.6667 23.8667V19.8667L30.3334 23.6C28.6 25.6 27 26.6667 27 25.7333C27 24.9333 27.6667 23.7333 28.3334 23.3333C30.3334 22.1333 29.9334 20 27.8 20C26.7334 20 23.4 15.4667 20.3334 9.99999C16.4667 2.93332 14.0667 -1.08836e-05 12.2 -1.08836e-05C10.8667 -1.08836e-05 9.6667 0.533322 9.6667 1.19999Z" fill="currentColor"/>
<path d="M31.8 7.6C26.3333 16.2667 25.9333 18.6667 29.5333 18.6667C31 18.6667 32.7333 17.0667 33.8 14.5333C34.7333 12.1333 36.8667 8.66667 38.6 6.53334C40.4667 4.4 41.5333 2.13334 41 1.33334C39.1333 -1.6 36.3333 0.400004 31.8 7.6Z" fill="currentColor"/>
<path d="M37.6667 10.6667C36.6 12.5333 35.5334 18.6667 35.2667 24.4C34.7334 33.0667 35 35.2 37 37.3333C39.4 40 39.4 40 36.6 39.7333C34.4667 39.4667 32.7334 40.6667 30.7334 43.8667L27.8 48.4L30.7334 47.7333C33.2667 47.0667 33.4 47.2 32.2 49.6C29.2667 55.0667 31.9334 54.5333 36.0667 48.8C40.4667 42.8 40.4667 42.6667 37.4 42.5333H34.3334L37.4 41.2C40.3334 40.1333 40.4667 39.4667 39.8 31.8667C39.2667 27.3333 38.3334 22.5333 37.5334 21.0667C36.7334 19.6 36.4667 18.1333 36.8667 17.7333C37.2667 17.3333 37.9334 18 38.4667 19.2C39.1334 21.0667 39.6667 21.0667 41.5334 19.7333C43.4 18.2667 43.4 18.2667 41.9334 20.2667C40.4667 22.1333 40.7334 23.6 43.5334 30C45.4 34 47 38 47 38.6667C47 41.7333 49.4 39.6 50.0667 36C51 32 45.9334 17.3333 41.5334 10.5333L39.4 7.46667L37.6667 10.6667Z" fill="currentColor"/>
<path d="M11.8 25.6C11.4 27.3333 11 31.8667 11 35.8667C11 41.4667 11.9333 44.5333 15.4 50.5333L19.6667 58L20.0667 52.4C20.3333 48.6667 19.5333 44.9333 17.6667 41.3333C16.2 38.4 15.2667 35.3333 15.6667 34.6667C16.6 33.0667 14.8667 22.6667 13.6667 22.6667C13.1333 22.6667 12.3333 24 11.8 25.6Z" fill="currentColor"/>
<path d="M26.6 53.3333C24.6 56.1333 24.0667 56.4 23 54.6667C22.0667 53.2 21.6667 53.6 21.6667 56.6667C21.8 58.8 22.6 61.7333 23.5334 62.9333C25.1334 65.0667 25.5334 64.8 27.5334 60.1333C28.8667 57.3333 29.6667 53.8667 29.4 52.5333C29 50.2667 28.7334 50.4 26.6 53.3333Z" fill="currentColor"/>
</svg>
