<svg width="50" height="70" viewBox="0 0 50 70" fill="none" xmlns="http://www.w3.org/2000/svg">
<path d="M20 1.33331C17.7333 4.79998 15.3333 9.59998 15.3333 10.8C15.3333 12.8 20.6666 12.1333 21.4666 10.1333C21.8666 9.06664 22 6.26664 21.7333 3.73331C21.4666 0.266642 21.0666 -0.266691 20 1.33331Z" fill="currentColor"/>
<path d="M30 5.33332C30 8.93332 30.6667 11.0667 32 11.6C35.2 12.8 35.7333 11.3333 34 6.13332C31.7333 -0.666678 30 -1.06668 30 5.33332Z" fill="currentColor"/>
<path d="M16.1333 30.9333C16.5333 40.6667 17.4667 53.4667 18.5333 59.3333L20.2667 70L20.4 45.0667C20.4 31.4667 20.8 19.4667 21.3333 18.4C21.7333 17.4667 21.2 17.8667 20 19.3333C17.7333 22 17.7333 22 18.2667 19.3333C18.5333 17.6 19.6 16.8 21.3333 17.0667C22.8 17.3333 25.7333 17.6 27.7333 17.7333L31.6 18L31.4667 44C31.4667 68.8 31.6 69.6 33.2 62C35.2 53.0667 36.8 24.5333 35.7333 17.7333L34.9333 13.3333H25.3333H15.6L16.1333 30.9333Z" fill="currentColor"/>
<path d="M5.46666 19.2C2.79999 21.6 0.666656 24.5333 0.666656 25.7333C0.666656 26.8 3.46666 30.2667 7.06666 33.3333C12.9333 38.6667 13.3333 38.8 13.7333 36C14 34.1333 12.8 31.6 10.4 29.0667L6.66666 25.0667L10.4 22C14.2667 18.5333 15.2 14.6667 12.1333 14.6667C11.0667 14.6667 7.99999 16.6667 5.46666 19.2Z" fill="currentColor"/>
<path d="M37.6 16.9333C38 18.2666 39.6 20.6666 41.0667 22.2666L43.7333 25.3333L41.0667 28.2666C38.2667 31.4666 36.1333 37.3333 38 37.3333C39.2 37.3333 46.1333 32 48.2667 29.3333C51.0667 25.8666 50.1333 23.0666 45.0667 18.8C39.4667 14.1333 36.2667 13.4666 37.6 16.9333Z" fill="currentColor"/>
<path d="M23.8667 25.8667C23.4667 27.7333 23.4667 29.7333 23.8667 30.5333C24.4 31.2 24.1333 32.1333 23.3333 32.6667C21.6 33.7333 21.6 40 23.2 40C24.9333 40 28.4 36.4 29.2 33.6C30.1333 30.6667 28.2667 23.6 26.2667 22.9333C25.4667 22.6667 24.4 24 23.8667 25.8667Z" fill="currentColor"/>
</svg>
